<?xml version="1.0" encoding="UTF-8"?>
<svg width="32px" height="32px" viewBox="0 0 32 32" version="1.1" xmlns="http://www.w3.org/2000/svg" xmlns:xlink="http://www.w3.org/1999/xlink">
    <!-- Generator: Sketch 48.2 (47327) - http://www.bohemiancoding.com/sketch -->
    <title>instagram-logo</title>
    <desc>Created with Sketch.</desc>
    <defs></defs>
    <g id="Parcerias" stroke="none" stroke-width="1" fill="none" fill-rule="evenodd" transform="translate(-148.000000, -1896.000000)">
        <g id="footer" transform="translate(0.000000, 1757.000000)" fill="#17A2FF" fill-rule="nonzero">
            <g id="Group-7">
                <g transform="translate(100.000000, 67.000000)">
                    <g id="Group-5" transform="translate(0.000000, 72.000000)">
                        <g id="instagram-logo" transform="translate(48.000000, 0.000000)">
                            <path d="M15.888,19.06944 C17.64096,19.06944 19.07008,17.64288 19.07008,15.88864 C19.07008,15.19616 18.84352,14.5568 18.46848,14.03456 C17.89056,13.23328 16.95104,12.70784 15.88992,12.70784 C14.82816,12.70784 13.88928,13.23264 13.31008,14.03392 C12.93376,14.55616 12.70912,15.19552 12.70848,15.888 C12.70656,17.64224 14.1344,19.06944 15.888,19.06944 Z" id="Shape"></path>
                            <polygon id="Shape" points="22.83392 11.99744 22.83392 9.3312 22.83392 8.9344 22.4352 8.93568 19.77024 8.944 19.78048 12.00768"></polygon>
                            <path d="M15.88864,0 C7.12768,0 0,7.12768 0,15.88864 C0,24.64896 7.12768,31.77728 15.88864,31.77728 C24.64896,31.77728 31.77728,24.64896 31.77728,15.88864 C31.77728,7.12768 24.65024,0 15.88864,0 Z M24.9248,14.03456 L24.9248,21.43296 C24.9248,23.36 23.35808,24.92608 21.43232,24.92608 L10.34496,24.92608 C8.41856,24.92608 6.85248,23.36 6.85248,21.43296 L6.85248,14.03456 L6.85248,10.3456 C6.85248,8.4192 8.41856,6.85312 10.34496,6.85312 L21.43168,6.85312 C23.35808,6.85312 24.9248,8.4192 24.9248,10.3456 L24.9248,14.03456 Z" id="Shape"></path>
                            <path d="M20.83136,15.88864 C20.83136,18.61312 18.6144,20.83136 15.88864,20.83136 C13.16288,20.83136 10.94656,18.61312 10.94656,15.88864 C10.94656,15.23328 11.07712,14.60672 11.31008,14.03456 L8.61248,14.03456 L8.61248,21.43296 C8.61248,22.38912 9.3888,23.16352 10.34432,23.16352 L21.43104,23.16352 C22.38528,23.16352 23.16288,22.38912 23.16288,21.43296 L23.16288,14.03456 L20.464,14.03456 C20.69888,14.60672 20.83136,15.23328 20.83136,15.88864 Z" id="Shape"></path>
                        </g>
                    </g>
                </g>
            </g>
        </g>
    </g>
</svg>