<?xml version="1.0" encoding="UTF-8"?>
<svg width="360px" height="184px" viewBox="0 0 360 184" version="1.1" xmlns="http://www.w3.org/2000/svg" xmlns:xlink="http://www.w3.org/1999/xlink">
    <!-- Generator: Sketch 48.2 (47327) - http://www.bohemiancoding.com/sketch -->
    <title>pattern</title>
    <desc>Created with Sketch.</desc>
    <defs></defs>
    <g id="Homepage" stroke="none" stroke-width="1" fill="none" fill-rule="evenodd" transform="translate(-932.000000, -2074.000000)">
        <g id="Group-9" transform="translate(0.000000, 1525.000000)" fill="#24D7B4" fill-rule="nonzero">
            <g id="Group-11" transform="translate(148.000000, 336.000000)">
                <g id="Group-16">
                    <g id="Group-7" transform="translate(784.000000, 0.000000)">
                        <g id="pattern" transform="translate(-100.000000, 187.000000)">
                            <g id="syringe" transform="translate(323.377876, 228.489092) rotate(-30.000000) translate(-323.377876, -228.489092) translate(288.877876, 185.489092)">
                                <path d="M26.5384615,26.8847097 L18.5769231,22.7234194 L18.5769231,16.6451613 L15.9230769,16.6451613 L15.9230769,0 L13.2692308,0 L13.2692308,16.6451613 L10.6153846,16.6451613 L10.6153846,22.7234194 L2.65384615,26.8847097 L2.65384615,69.3548387 L0,69.3548387 L0,72.1290323 L5.30769231,72.1290323 L5.30769231,83.2258065 L2.65384615,83.2258065 L2.65384615,86 L26.5384615,86 L26.5384615,83.2258065 L23.8846154,83.2258065 L23.8846154,72.1290323 L29.1923077,72.1290323 L29.1923077,69.3548387 L26.5384615,69.3548387 L26.5384615,26.8847097 Z M13.2692308,19.4193548 L15.9230769,19.4193548 L15.9230769,22.1935484 L13.2692308,22.1935484 L13.2692308,19.4193548 Z M21.2307692,83.2258065 L7.96153846,83.2258065 L7.96153846,72.1290323 L21.2307692,72.1290323 L21.2307692,83.2258065 Z M23.8846154,30.516129 L14.5961538,30.516129 L14.5961538,33.2903226 L23.8846154,33.2903226 L23.8846154,36.0645161 L17.25,36.0645161 L17.25,38.8387097 L23.8846154,38.8387097 L23.8846154,41.6129032 L14.5961538,41.6129032 L14.5961538,44.3870968 L23.8846154,44.3870968 L23.8846154,47.1612903 L17.25,47.1612903 L17.25,49.9354839 L23.8846154,49.9354839 L23.8846154,52.7096774 L14.5961538,52.7096774 L14.5961538,55.483871 L23.8846154,55.483871 L23.8846154,58.2580645 L17.25,58.2580645 L17.25,61.0322581 L23.8846154,61.0322581 L23.8846154,63.8064516 L14.5961538,63.8064516 L14.5961538,66.5806452 L23.8846154,66.5806452 L23.8846154,69.3548387 L5.30769231,69.3548387 L5.30769231,28.5991613 L12.2554615,24.9677419 L16.9355192,24.9677419 L23.8846154,28.5991613 L23.8846154,30.516129 Z" id="Shape"></path>
                                <path d="M63.6923077,36.3524468 L63.6923077,26.5319149 L45.1153846,26.5319149 L45.1153846,36.3524468 C42.0913269,36.9955319 39.8076923,39.787766 39.8076923,43.1276596 L39.8076923,86 L69,86 L69,43.1276596 C69,39.7891489 66.7163654,36.9955319 63.6923077,36.3524468 Z M47.7692308,29.2978723 L50.4230769,29.2978723 L50.4230769,33.4468085 L53.0769231,33.4468085 L53.0769231,29.2978723 L55.7307692,29.2978723 L55.7307692,33.4468085 L58.3846154,33.4468085 L58.3846154,29.2978723 L61.0384615,29.2978723 L61.0384615,36.212766 L47.7692308,36.212766 L47.7692308,29.2978723 Z M66.3461538,72.1702128 L63.6923077,72.1702128 L63.6923077,74.9361702 L66.3461538,74.9361702 L66.3461538,83.2340426 L42.4615385,83.2340426 L42.4615385,74.9361702 L61.0384615,74.9361702 L61.0384615,72.1702128 L42.4615385,72.1702128 L42.4615385,48.6595745 L66.3461538,48.6595745 L66.3461538,72.1702128 Z M66.3461538,45.893617 L42.4615385,45.893617 L42.4615385,43.1276596 C42.4615385,40.8402128 44.2475769,38.9787234 46.4423077,38.9787234 L62.3653846,38.9787234 C64.5601154,38.9787234 66.3461538,40.8402128 66.3461538,43.1276596 L66.3461538,45.893617 Z" id="Shape"></path>
                            </g>
                            <g id="syringe" transform="translate(432.627876, 228.907356) rotate(-30.000000) translate(-432.627876, -228.907356) translate(398.127876, 185.407356)">
                                <path d="M26.5271158,26.9960956 L18.5689811,22.8175646 L18.5689811,16.7141238 L15.9162695,16.7141238 L15.9162695,0 L13.2635579,0 L13.2635579,16.7141238 L10.6108463,16.7141238 L10.6108463,22.8175646 L2.65271158,26.9960956 L2.65271158,69.6421824 L0,69.6421824 L0,72.4278697 L5.30542316,72.4278697 L5.30542316,83.5706189 L2.65271158,83.5706189 L2.65271158,86.3563061 L26.5271158,86.3563061 L26.5271158,83.5706189 L23.8744042,83.5706189 L23.8744042,72.4278697 L29.1798274,72.4278697 L29.1798274,69.6421824 L26.5271158,69.6421824 L26.5271158,26.9960956 Z M13.2635579,19.4998111 L15.9162695,19.4998111 L15.9162695,22.2854984 L13.2635579,22.2854984 L13.2635579,19.4998111 Z M21.2216926,83.5706189 L7.95813474,83.5706189 L7.95813474,72.4278697 L21.2216926,72.4278697 L21.2216926,83.5706189 Z M23.8744042,30.6425602 L14.5899137,30.6425602 L14.5899137,33.4282475 L23.8744042,33.4282475 L23.8744042,36.2139348 L17.2426253,36.2139348 L17.2426253,38.9996221 L23.8744042,38.9996221 L23.8744042,41.7853094 L14.5899137,41.7853094 L14.5899137,44.5709967 L23.8744042,44.5709967 L23.8744042,47.356684 L17.2426253,47.356684 L17.2426253,50.1423713 L23.8744042,50.1423713 L23.8744042,52.9280586 L14.5899137,52.9280586 L14.5899137,55.7137459 L23.8744042,55.7137459 L23.8744042,58.4994332 L17.2426253,58.4994332 L17.2426253,61.2851205 L23.8744042,61.2851205 L23.8744042,64.0708078 L14.5899137,64.0708078 L14.5899137,66.8564951 L23.8744042,66.8564951 L23.8744042,69.6421824 L5.30542316,69.6421824 L5.30542316,28.7176503 L12.2502221,25.0711857 L16.9282789,25.0711857 L23.8744042,28.7176503 L23.8744042,30.6425602 Z" id="Shape"></path>
                                <path d="M63.6650779,36.5030584 L63.6650779,26.6418391 L45.0960968,26.6418391 L45.0960968,36.5030584 C42.073332,37.1488079 39.7906737,39.9526104 39.7906737,43.3063416 L39.7906737,86.3563061 L68.9705011,86.3563061 L68.9705011,43.3063416 C68.9705011,39.9539991 66.6878428,37.1488079 63.6650779,36.5030584 Z M47.7488084,29.4192562 L50.40152,29.4192562 L50.40152,33.5853818 L53.0542316,33.5853818 L53.0542316,29.4192562 L55.7069432,29.4192562 L55.7069432,33.5853818 L58.3596547,33.5853818 L58.3596547,29.4192562 L61.0123663,29.4192562 L61.0123663,36.3627989 L47.7488084,36.3627989 L47.7488084,29.4192562 Z M66.3177895,72.4692208 L63.6650779,72.4692208 L63.6650779,75.2466379 L66.3177895,75.2466379 L66.3177895,83.5788891 L42.4433853,83.5788891 L42.4433853,75.2466379 L61.0123663,75.2466379 L61.0123663,72.4692208 L42.4433853,72.4692208 L42.4433853,48.8611757 L66.3177895,48.8611757 L66.3177895,72.4692208 Z M66.3177895,46.0837586 L42.4433853,46.0837586 L42.4433853,43.3063416 C42.4433853,41.0094176 44.2286602,39.1402159 46.4224526,39.1402159 L62.3387221,39.1402159 C64.5325146,39.1402159 66.3177895,41.0094176 66.3177895,43.3063416 L66.3177895,46.0837586 Z" id="Shape"></path>
                            </g>
                            <g id="syringe" transform="translate(216.627876, 228.907356) rotate(-30.000000) translate(-216.627876, -228.907356) translate(182.127876, 185.407356)">
                                <path d="M26.5271158,26.9960956 L18.5689811,22.8175646 L18.5689811,16.7141238 L15.9162695,16.7141238 L15.9162695,0 L13.2635579,0 L13.2635579,16.7141238 L10.6108463,16.7141238 L10.6108463,22.8175646 L2.65271158,26.9960956 L2.65271158,69.6421824 L0,69.6421824 L0,72.4278697 L5.30542316,72.4278697 L5.30542316,83.5706189 L2.65271158,83.5706189 L2.65271158,86.3563061 L26.5271158,86.3563061 L26.5271158,83.5706189 L23.8744042,83.5706189 L23.8744042,72.4278697 L29.1798274,72.4278697 L29.1798274,69.6421824 L26.5271158,69.6421824 L26.5271158,26.9960956 Z M13.2635579,19.4998111 L15.9162695,19.4998111 L15.9162695,22.2854984 L13.2635579,22.2854984 L13.2635579,19.4998111 Z M21.2216926,83.5706189 L7.95813474,83.5706189 L7.95813474,72.4278697 L21.2216926,72.4278697 L21.2216926,83.5706189 Z M23.8744042,30.6425602 L14.5899137,30.6425602 L14.5899137,33.4282475 L23.8744042,33.4282475 L23.8744042,36.2139348 L17.2426253,36.2139348 L17.2426253,38.9996221 L23.8744042,38.9996221 L23.8744042,41.7853094 L14.5899137,41.7853094 L14.5899137,44.5709967 L23.8744042,44.5709967 L23.8744042,47.356684 L17.2426253,47.356684 L17.2426253,50.1423713 L23.8744042,50.1423713 L23.8744042,52.9280586 L14.5899137,52.9280586 L14.5899137,55.7137459 L23.8744042,55.7137459 L23.8744042,58.4994332 L17.2426253,58.4994332 L17.2426253,61.2851205 L23.8744042,61.2851205 L23.8744042,64.0708078 L14.5899137,64.0708078 L14.5899137,66.8564951 L23.8744042,66.8564951 L23.8744042,69.6421824 L5.30542316,69.6421824 L5.30542316,28.7176503 L12.2502221,25.0711857 L16.9282789,25.0711857 L23.8744042,28.7176503 L23.8744042,30.6425602 Z" id="Shape"></path>
                                <path d="M63.6650779,36.5030584 L63.6650779,26.6418391 L45.0960968,26.6418391 L45.0960968,36.5030584 C42.073332,37.1488079 39.7906737,39.9526104 39.7906737,43.3063416 L39.7906737,86.3563061 L68.9705011,86.3563061 L68.9705011,43.3063416 C68.9705011,39.9539991 66.6878428,37.1488079 63.6650779,36.5030584 Z M47.7488084,29.4192562 L50.40152,29.4192562 L50.40152,33.5853818 L53.0542316,33.5853818 L53.0542316,29.4192562 L55.7069432,29.4192562 L55.7069432,33.5853818 L58.3596547,33.5853818 L58.3596547,29.4192562 L61.0123663,29.4192562 L61.0123663,36.3627989 L47.7488084,36.3627989 L47.7488084,29.4192562 Z M66.3177895,72.4692208 L63.6650779,72.4692208 L63.6650779,75.2466379 L66.3177895,75.2466379 L66.3177895,83.5788891 L42.4433853,83.5788891 L42.4433853,75.2466379 L61.0123663,75.2466379 L61.0123663,72.4692208 L42.4433853,72.4692208 L42.4433853,48.8611757 L66.3177895,48.8611757 L66.3177895,72.4692208 Z M66.3177895,46.0837586 L42.4433853,46.0837586 L42.4433853,43.3063416 C42.4433853,41.0094176 44.2286602,39.1402159 46.4224526,39.1402159 L62.3387221,39.1402159 C64.5325146,39.1402159 66.3177895,41.0094176 66.3177895,43.3063416 L66.3177895,46.0837586 Z" id="Shape"></path>
                            </g>
                            <g id="syringe" transform="translate(373.627876, 143.907356) rotate(-30.000000) translate(-373.627876, -143.907356) translate(339.127876, 100.407356)">
                                <path d="M26.5271158,26.9960956 L18.5689811,22.8175646 L18.5689811,16.7141238 L15.9162695,16.7141238 L15.9162695,0 L13.2635579,0 L13.2635579,16.7141238 L10.6108463,16.7141238 L10.6108463,22.8175646 L2.65271158,26.9960956 L2.65271158,69.6421824 L0,69.6421824 L0,72.4278697 L5.30542316,72.4278697 L5.30542316,83.5706189 L2.65271158,83.5706189 L2.65271158,86.3563061 L26.5271158,86.3563061 L26.5271158,83.5706189 L23.8744042,83.5706189 L23.8744042,72.4278697 L29.1798274,72.4278697 L29.1798274,69.6421824 L26.5271158,69.6421824 L26.5271158,26.9960956 Z M13.2635579,19.4998111 L15.9162695,19.4998111 L15.9162695,22.2854984 L13.2635579,22.2854984 L13.2635579,19.4998111 Z M21.2216926,83.5706189 L7.95813474,83.5706189 L7.95813474,72.4278697 L21.2216926,72.4278697 L21.2216926,83.5706189 Z M23.8744042,30.6425602 L14.5899137,30.6425602 L14.5899137,33.4282475 L23.8744042,33.4282475 L23.8744042,36.2139348 L17.2426253,36.2139348 L17.2426253,38.9996221 L23.8744042,38.9996221 L23.8744042,41.7853094 L14.5899137,41.7853094 L14.5899137,44.5709967 L23.8744042,44.5709967 L23.8744042,47.356684 L17.2426253,47.356684 L17.2426253,50.1423713 L23.8744042,50.1423713 L23.8744042,52.9280586 L14.5899137,52.9280586 L14.5899137,55.7137459 L23.8744042,55.7137459 L23.8744042,58.4994332 L17.2426253,58.4994332 L17.2426253,61.2851205 L23.8744042,61.2851205 L23.8744042,64.0708078 L14.5899137,64.0708078 L14.5899137,66.8564951 L23.8744042,66.8564951 L23.8744042,69.6421824 L5.30542316,69.6421824 L5.30542316,28.7176503 L12.2502221,25.0711857 L16.9282789,25.0711857 L23.8744042,28.7176503 L23.8744042,30.6425602 Z" id="Shape"></path>
                                <path d="M63.6650779,36.5030584 L63.6650779,26.6418391 L45.0960968,26.6418391 L45.0960968,36.5030584 C42.073332,37.1488079 39.7906737,39.9526104 39.7906737,43.3063416 L39.7906737,86.3563061 L68.9705011,86.3563061 L68.9705011,43.3063416 C68.9705011,39.9539991 66.6878428,37.1488079 63.6650779,36.5030584 Z M47.7488084,29.4192562 L50.40152,29.4192562 L50.40152,33.5853818 L53.0542316,33.5853818 L53.0542316,29.4192562 L55.7069432,29.4192562 L55.7069432,33.5853818 L58.3596547,33.5853818 L58.3596547,29.4192562 L61.0123663,29.4192562 L61.0123663,36.3627989 L47.7488084,36.3627989 L47.7488084,29.4192562 Z M66.3177895,72.4692208 L63.6650779,72.4692208 L63.6650779,75.2466379 L66.3177895,75.2466379 L66.3177895,83.5788891 L42.4433853,83.5788891 L42.4433853,75.2466379 L61.0123663,75.2466379 L61.0123663,72.4692208 L42.4433853,72.4692208 L42.4433853,48.8611757 L66.3177895,48.8611757 L66.3177895,72.4692208 Z M66.3177895,46.0837586 L42.4433853,46.0837586 L42.4433853,43.3063416 C42.4433853,41.0094176 44.2286602,39.1402159 46.4224526,39.1402159 L62.3387221,39.1402159 C64.5325146,39.1402159 66.3177895,41.0094176 66.3177895,43.3063416 L66.3177895,46.0837586 Z" id="Shape"></path>
                                <path d="M49.4784082,69.6841155 C51.2195133,69.6841155 52.690493,68.5184516 53.2441163,66.9054171 L56.4120716,66.9054171 C56.9656949,68.5184516 58.4366746,69.6841155 60.1777797,69.6841155 C62.3895983,69.6841155 64.1895425,67.8140515 64.1895425,65.5160679 C64.1895425,63.2180843 62.388261,61.3480202 60.1764424,61.3480202 C60.0106229,61.3480202 59.8514896,61.3785859 59.6910191,61.3994262 L58.1277689,58.152517 C58.5744118,57.480072 58.8391881,56.6673027 58.8391881,55.7906234 C58.8391881,53.4926398 57.0392439,51.6225757 54.8274253,51.6225757 C52.6156067,51.6225757 50.8156625,53.4926398 50.8156625,55.7906234 C50.8156625,56.6673027 51.0804388,57.480072 51.5270818,58.1511277 L49.9638315,61.3980368 C49.803361,61.3785859 49.6442277,61.3480202 49.4784082,61.3480202 C47.2665896,61.3480202 45.4666454,63.2180843 45.4666454,65.5160679 C45.4666454,67.8140515 47.2665896,69.6841155 49.4784082,69.6841155 Z M60.1764424,64.1267187 C60.9146068,64.1267187 61.5136967,64.7491471 61.5136967,65.5160679 C61.5136967,66.2829887 60.9146068,66.9054171 60.1764424,66.9054171 C59.4382781,66.9054171 58.8391881,66.2829887 58.8391881,65.5160679 C58.8391881,64.7491471 59.4382781,64.1267187 60.1764424,64.1267187 Z M54.8274253,54.4012742 C55.5655897,54.4012742 56.1646796,55.0237026 56.1646796,55.7906234 C56.1646796,56.5575441 55.5655897,57.1799726 54.8274253,57.1799726 C54.089261,57.1799726 53.490171,56.5575441 53.490171,55.7906234 C53.490171,55.0237026 54.089261,54.4012742 54.8274253,54.4012742 Z M53.7335513,59.7808343 C54.0839119,59.8850355 54.4463079,59.958671 54.8274253,59.958671 C55.2085428,59.958671 55.5709387,59.8850355 55.9212993,59.7808343 L57.2933222,62.6303896 C56.9015067,63.0527517 56.6046363,63.5626429 56.4120716,64.1267187 L53.2441163,64.1267187 C53.0502144,63.5640322 52.7533439,63.0527517 52.3615284,62.6303896 L53.7335513,59.7808343 Z M49.4784082,64.1267187 C50.2165726,64.1267187 50.8156625,64.7491471 50.8156625,65.5160679 C50.8156625,66.2829887 50.2165726,66.9054171 49.4784082,66.9054171 C48.7402439,66.9054171 48.1411539,66.2829887 48.1411539,65.5160679 C48.1411539,64.7491471 48.7402439,64.1267187 49.4784082,64.1267187 Z" id="Shape"></path>
                            </g>
                            <g id="syringe" transform="translate(481.627876, 143.907356) rotate(-30.000000) translate(-481.627876, -143.907356) translate(447.127876, 100.407356)">
                                <path d="M26.5271158,26.9960956 L18.5689811,22.8175646 L18.5689811,16.7141238 L15.9162695,16.7141238 L15.9162695,0 L13.2635579,0 L13.2635579,16.7141238 L10.6108463,16.7141238 L10.6108463,22.8175646 L2.65271158,26.9960956 L2.65271158,69.6421824 L0,69.6421824 L0,72.4278697 L5.30542316,72.4278697 L5.30542316,83.5706189 L2.65271158,83.5706189 L2.65271158,86.3563061 L26.5271158,86.3563061 L26.5271158,83.5706189 L23.8744042,83.5706189 L23.8744042,72.4278697 L29.1798274,72.4278697 L29.1798274,69.6421824 L26.5271158,69.6421824 L26.5271158,26.9960956 Z M13.2635579,19.4998111 L15.9162695,19.4998111 L15.9162695,22.2854984 L13.2635579,22.2854984 L13.2635579,19.4998111 Z M21.2216926,83.5706189 L7.95813474,83.5706189 L7.95813474,72.4278697 L21.2216926,72.4278697 L21.2216926,83.5706189 Z M23.8744042,30.6425602 L14.5899137,30.6425602 L14.5899137,33.4282475 L23.8744042,33.4282475 L23.8744042,36.2139348 L17.2426253,36.2139348 L17.2426253,38.9996221 L23.8744042,38.9996221 L23.8744042,41.7853094 L14.5899137,41.7853094 L14.5899137,44.5709967 L23.8744042,44.5709967 L23.8744042,47.356684 L17.2426253,47.356684 L17.2426253,50.1423713 L23.8744042,50.1423713 L23.8744042,52.9280586 L14.5899137,52.9280586 L14.5899137,55.7137459 L23.8744042,55.7137459 L23.8744042,58.4994332 L17.2426253,58.4994332 L17.2426253,61.2851205 L23.8744042,61.2851205 L23.8744042,64.0708078 L14.5899137,64.0708078 L14.5899137,66.8564951 L23.8744042,66.8564951 L23.8744042,69.6421824 L5.30542316,69.6421824 L5.30542316,28.7176503 L12.2502221,25.0711857 L16.9282789,25.0711857 L23.8744042,28.7176503 L23.8744042,30.6425602 Z" id="Shape"></path>
                            </g>
                            <g id="syringe" transform="translate(107.377876, 228.489092) rotate(-30.000000) translate(-107.377876, -228.489092) translate(72.877876, 185.489092)">
                                <path d="M26.5384615,26.8847097 L18.5769231,22.7234194 L18.5769231,16.6451613 L15.9230769,16.6451613 L15.9230769,0 L13.2692308,0 L13.2692308,16.6451613 L10.6153846,16.6451613 L10.6153846,22.7234194 L2.65384615,26.8847097 L2.65384615,69.3548387 L0,69.3548387 L0,72.1290323 L5.30769231,72.1290323 L5.30769231,83.2258065 L2.65384615,83.2258065 L2.65384615,86 L26.5384615,86 L26.5384615,83.2258065 L23.8846154,83.2258065 L23.8846154,72.1290323 L29.1923077,72.1290323 L29.1923077,69.3548387 L26.5384615,69.3548387 L26.5384615,26.8847097 Z M13.2692308,19.4193548 L15.9230769,19.4193548 L15.9230769,22.1935484 L13.2692308,22.1935484 L13.2692308,19.4193548 Z M21.2307692,83.2258065 L7.96153846,83.2258065 L7.96153846,72.1290323 L21.2307692,72.1290323 L21.2307692,83.2258065 Z M23.8846154,30.516129 L14.5961538,30.516129 L14.5961538,33.2903226 L23.8846154,33.2903226 L23.8846154,36.0645161 L17.25,36.0645161 L17.25,38.8387097 L23.8846154,38.8387097 L23.8846154,41.6129032 L14.5961538,41.6129032 L14.5961538,44.3870968 L23.8846154,44.3870968 L23.8846154,47.1612903 L17.25,47.1612903 L17.25,49.9354839 L23.8846154,49.9354839 L23.8846154,52.7096774 L14.5961538,52.7096774 L14.5961538,55.483871 L23.8846154,55.483871 L23.8846154,58.2580645 L17.25,58.2580645 L17.25,61.0322581 L23.8846154,61.0322581 L23.8846154,63.8064516 L14.5961538,63.8064516 L14.5961538,66.5806452 L23.8846154,66.5806452 L23.8846154,69.3548387 L5.30769231,69.3548387 L5.30769231,28.5991613 L12.2554615,24.9677419 L16.9355192,24.9677419 L23.8846154,28.5991613 L23.8846154,30.516129 Z" id="Shape"></path>
                                <path d="M63.6923077,36.3524468 L63.6923077,26.5319149 L45.1153846,26.5319149 L45.1153846,36.3524468 C42.0913269,36.9955319 39.8076923,39.787766 39.8076923,43.1276596 L39.8076923,86 L69,86 L69,43.1276596 C69,39.7891489 66.7163654,36.9955319 63.6923077,36.3524468 Z M47.7692308,29.2978723 L50.4230769,29.2978723 L50.4230769,33.4468085 L53.0769231,33.4468085 L53.0769231,29.2978723 L55.7307692,29.2978723 L55.7307692,33.4468085 L58.3846154,33.4468085 L58.3846154,29.2978723 L61.0384615,29.2978723 L61.0384615,36.212766 L47.7692308,36.212766 L47.7692308,29.2978723 Z M66.3461538,72.1702128 L63.6923077,72.1702128 L63.6923077,74.9361702 L66.3461538,74.9361702 L66.3461538,83.2340426 L42.4615385,83.2340426 L42.4615385,74.9361702 L61.0384615,74.9361702 L61.0384615,72.1702128 L42.4615385,72.1702128 L42.4615385,48.6595745 L66.3461538,48.6595745 L66.3461538,72.1702128 Z M66.3461538,45.893617 L42.4615385,45.893617 L42.4615385,43.1276596 C42.4615385,40.8402128 44.2475769,38.9787234 46.4423077,38.9787234 L62.3653846,38.9787234 C64.5601154,38.9787234 66.3461538,40.8402128 66.3461538,43.1276596 L66.3461538,45.893617 Z" id="Shape"></path>
                            </g>
                            <g id="syringe" transform="translate(157.627876, 143.907356) rotate(-30.000000) translate(-157.627876, -143.907356) translate(123.127876, 100.407356)">
                                <path d="M26.5271158,26.9960956 L18.5689811,22.8175646 L18.5689811,16.7141238 L15.9162695,16.7141238 L15.9162695,0 L13.2635579,0 L13.2635579,16.7141238 L10.6108463,16.7141238 L10.6108463,22.8175646 L2.65271158,26.9960956 L2.65271158,69.6421824 L0,69.6421824 L0,72.4278697 L5.30542316,72.4278697 L5.30542316,83.5706189 L2.65271158,83.5706189 L2.65271158,86.3563061 L26.5271158,86.3563061 L26.5271158,83.5706189 L23.8744042,83.5706189 L23.8744042,72.4278697 L29.1798274,72.4278697 L29.1798274,69.6421824 L26.5271158,69.6421824 L26.5271158,26.9960956 Z M13.2635579,19.4998111 L15.9162695,19.4998111 L15.9162695,22.2854984 L13.2635579,22.2854984 L13.2635579,19.4998111 Z M21.2216926,83.5706189 L7.95813474,83.5706189 L7.95813474,72.4278697 L21.2216926,72.4278697 L21.2216926,83.5706189 Z M23.8744042,30.6425602 L14.5899137,30.6425602 L14.5899137,33.4282475 L23.8744042,33.4282475 L23.8744042,36.2139348 L17.2426253,36.2139348 L17.2426253,38.9996221 L23.8744042,38.9996221 L23.8744042,41.7853094 L14.5899137,41.7853094 L14.5899137,44.5709967 L23.8744042,44.5709967 L23.8744042,47.356684 L17.2426253,47.356684 L17.2426253,50.1423713 L23.8744042,50.1423713 L23.8744042,52.9280586 L14.5899137,52.9280586 L14.5899137,55.7137459 L23.8744042,55.7137459 L23.8744042,58.4994332 L17.2426253,58.4994332 L17.2426253,61.2851205 L23.8744042,61.2851205 L23.8744042,64.0708078 L14.5899137,64.0708078 L14.5899137,66.8564951 L23.8744042,66.8564951 L23.8744042,69.6421824 L5.30542316,69.6421824 L5.30542316,28.7176503 L12.2502221,25.0711857 L16.9282789,25.0711857 L23.8744042,28.7176503 L23.8744042,30.6425602 Z" id="Shape"></path>
                                <path d="M63.6650779,36.5030584 L63.6650779,26.6418391 L45.0960968,26.6418391 L45.0960968,36.5030584 C42.073332,37.1488079 39.7906737,39.9526104 39.7906737,43.3063416 L39.7906737,86.3563061 L68.9705011,86.3563061 L68.9705011,43.3063416 C68.9705011,39.9539991 66.6878428,37.1488079 63.6650779,36.5030584 Z M47.7488084,29.4192562 L50.40152,29.4192562 L50.40152,33.5853818 L53.0542316,33.5853818 L53.0542316,29.4192562 L55.7069432,29.4192562 L55.7069432,33.5853818 L58.3596547,33.5853818 L58.3596547,29.4192562 L61.0123663,29.4192562 L61.0123663,36.3627989 L47.7488084,36.3627989 L47.7488084,29.4192562 Z M66.3177895,72.4692208 L63.6650779,72.4692208 L63.6650779,75.2466379 L66.3177895,75.2466379 L66.3177895,83.5788891 L42.4433853,83.5788891 L42.4433853,75.2466379 L61.0123663,75.2466379 L61.0123663,72.4692208 L42.4433853,72.4692208 L42.4433853,48.8611757 L66.3177895,48.8611757 L66.3177895,72.4692208 Z M66.3177895,46.0837586 L42.4433853,46.0837586 L42.4433853,43.3063416 C42.4433853,41.0094176 44.2286602,39.1402159 46.4224526,39.1402159 L62.3387221,39.1402159 C64.5325146,39.1402159 66.3177895,41.0094176 66.3177895,43.3063416 L66.3177895,46.0837586 Z" id="Shape"></path>
                                <path d="M49.4784082,69.6841155 C51.2195133,69.6841155 52.690493,68.5184516 53.2441163,66.9054171 L56.4120716,66.9054171 C56.9656949,68.5184516 58.4366746,69.6841155 60.1777797,69.6841155 C62.3895983,69.6841155 64.1895425,67.8140515 64.1895425,65.5160679 C64.1895425,63.2180843 62.388261,61.3480202 60.1764424,61.3480202 C60.0106229,61.3480202 59.8514896,61.3785859 59.6910191,61.3994262 L58.1277689,58.152517 C58.5744118,57.480072 58.8391881,56.6673027 58.8391881,55.7906234 C58.8391881,53.4926398 57.0392439,51.6225757 54.8274253,51.6225757 C52.6156067,51.6225757 50.8156625,53.4926398 50.8156625,55.7906234 C50.8156625,56.6673027 51.0804388,57.480072 51.5270818,58.1511277 L49.9638315,61.3980368 C49.803361,61.3785859 49.6442277,61.3480202 49.4784082,61.3480202 C47.2665896,61.3480202 45.4666454,63.2180843 45.4666454,65.5160679 C45.4666454,67.8140515 47.2665896,69.6841155 49.4784082,69.6841155 Z M60.1764424,64.1267187 C60.9146068,64.1267187 61.5136967,64.7491471 61.5136967,65.5160679 C61.5136967,66.2829887 60.9146068,66.9054171 60.1764424,66.9054171 C59.4382781,66.9054171 58.8391881,66.2829887 58.8391881,65.5160679 C58.8391881,64.7491471 59.4382781,64.1267187 60.1764424,64.1267187 Z M54.8274253,54.4012742 C55.5655897,54.4012742 56.1646796,55.0237026 56.1646796,55.7906234 C56.1646796,56.5575441 55.5655897,57.1799726 54.8274253,57.1799726 C54.089261,57.1799726 53.490171,56.5575441 53.490171,55.7906234 C53.490171,55.0237026 54.089261,54.4012742 54.8274253,54.4012742 Z M53.7335513,59.7808343 C54.0839119,59.8850355 54.4463079,59.958671 54.8274253,59.958671 C55.2085428,59.958671 55.5709387,59.8850355 55.9212993,59.7808343 L57.2933222,62.6303896 C56.9015067,63.0527517 56.6046363,63.5626429 56.4120716,64.1267187 L53.2441163,64.1267187 C53.0502144,63.5640322 52.7533439,63.0527517 52.3615284,62.6303896 L53.7335513,59.7808343 Z M49.4784082,64.1267187 C50.2165726,64.1267187 50.8156625,64.7491471 50.8156625,65.5160679 C50.8156625,66.2829887 50.2165726,66.9054171 49.4784082,66.9054171 C48.7402439,66.9054171 48.1411539,66.2829887 48.1411539,65.5160679 C48.1411539,64.7491471 48.7402439,64.1267187 49.4784082,64.1267187 Z" id="Shape"></path>
                            </g>
                            <g id="syringe" transform="translate(265.627876, 143.907356) rotate(-30.000000) translate(-265.627876, -143.907356) translate(231.127876, 100.407356)">
                                <path d="M26.5271158,26.9960956 L18.5689811,22.8175646 L18.5689811,16.7141238 L15.9162695,16.7141238 L15.9162695,0 L13.2635579,0 L13.2635579,16.7141238 L10.6108463,16.7141238 L10.6108463,22.8175646 L2.65271158,26.9960956 L2.65271158,69.6421824 L0,69.6421824 L0,72.4278697 L5.30542316,72.4278697 L5.30542316,83.5706189 L2.65271158,83.5706189 L2.65271158,86.3563061 L26.5271158,86.3563061 L26.5271158,83.5706189 L23.8744042,83.5706189 L23.8744042,72.4278697 L29.1798274,72.4278697 L29.1798274,69.6421824 L26.5271158,69.6421824 L26.5271158,26.9960956 Z M13.2635579,19.4998111 L15.9162695,19.4998111 L15.9162695,22.2854984 L13.2635579,22.2854984 L13.2635579,19.4998111 Z M21.2216926,83.5706189 L7.95813474,83.5706189 L7.95813474,72.4278697 L21.2216926,72.4278697 L21.2216926,83.5706189 Z M23.8744042,30.6425602 L14.5899137,30.6425602 L14.5899137,33.4282475 L23.8744042,33.4282475 L23.8744042,36.2139348 L17.2426253,36.2139348 L17.2426253,38.9996221 L23.8744042,38.9996221 L23.8744042,41.7853094 L14.5899137,41.7853094 L14.5899137,44.5709967 L23.8744042,44.5709967 L23.8744042,47.356684 L17.2426253,47.356684 L17.2426253,50.1423713 L23.8744042,50.1423713 L23.8744042,52.9280586 L14.5899137,52.9280586 L14.5899137,55.7137459 L23.8744042,55.7137459 L23.8744042,58.4994332 L17.2426253,58.4994332 L17.2426253,61.2851205 L23.8744042,61.2851205 L23.8744042,64.0708078 L14.5899137,64.0708078 L14.5899137,66.8564951 L23.8744042,66.8564951 L23.8744042,69.6421824 L5.30542316,69.6421824 L5.30542316,28.7176503 L12.2502221,25.0711857 L16.9282789,25.0711857 L23.8744042,28.7176503 L23.8744042,30.6425602 Z" id="Shape"></path>
                                <path d="M63.6650779,36.5030584 L63.6650779,26.6418391 L45.0960968,26.6418391 L45.0960968,36.5030584 C42.073332,37.1488079 39.7906737,39.9526104 39.7906737,43.3063416 L39.7906737,86.3563061 L68.9705011,86.3563061 L68.9705011,43.3063416 C68.9705011,39.9539991 66.6878428,37.1488079 63.6650779,36.5030584 Z M47.7488084,29.4192562 L50.40152,29.4192562 L50.40152,33.5853818 L53.0542316,33.5853818 L53.0542316,29.4192562 L55.7069432,29.4192562 L55.7069432,33.5853818 L58.3596547,33.5853818 L58.3596547,29.4192562 L61.0123663,29.4192562 L61.0123663,36.3627989 L47.7488084,36.3627989 L47.7488084,29.4192562 Z M66.3177895,72.4692208 L63.6650779,72.4692208 L63.6650779,75.2466379 L66.3177895,75.2466379 L66.3177895,83.5788891 L42.4433853,83.5788891 L42.4433853,75.2466379 L61.0123663,75.2466379 L61.0123663,72.4692208 L42.4433853,72.4692208 L42.4433853,48.8611757 L66.3177895,48.8611757 L66.3177895,72.4692208 Z M66.3177895,46.0837586 L42.4433853,46.0837586 L42.4433853,43.3063416 C42.4433853,41.0094176 44.2286602,39.1402159 46.4224526,39.1402159 L62.3387221,39.1402159 C64.5325146,39.1402159 66.3177895,41.0094176 66.3177895,43.3063416 L66.3177895,46.0837586 Z" id="Shape"></path>
                                <path d="M49.4784082,69.6841155 C51.2195133,69.6841155 52.690493,68.5184516 53.2441163,66.9054171 L56.4120716,66.9054171 C56.9656949,68.5184516 58.4366746,69.6841155 60.1777797,69.6841155 C62.3895983,69.6841155 64.1895425,67.8140515 64.1895425,65.5160679 C64.1895425,63.2180843 62.388261,61.3480202 60.1764424,61.3480202 C60.0106229,61.3480202 59.8514896,61.3785859 59.6910191,61.3994262 L58.1277689,58.152517 C58.5744118,57.480072 58.8391881,56.6673027 58.8391881,55.7906234 C58.8391881,53.4926398 57.0392439,51.6225757 54.8274253,51.6225757 C52.6156067,51.6225757 50.8156625,53.4926398 50.8156625,55.7906234 C50.8156625,56.6673027 51.0804388,57.480072 51.5270818,58.1511277 L49.9638315,61.3980368 C49.803361,61.3785859 49.6442277,61.3480202 49.4784082,61.3480202 C47.2665896,61.3480202 45.4666454,63.2180843 45.4666454,65.5160679 C45.4666454,67.8140515 47.2665896,69.6841155 49.4784082,69.6841155 Z M60.1764424,64.1267187 C60.9146068,64.1267187 61.5136967,64.7491471 61.5136967,65.5160679 C61.5136967,66.2829887 60.9146068,66.9054171 60.1764424,66.9054171 C59.4382781,66.9054171 58.8391881,66.2829887 58.8391881,65.5160679 C58.8391881,64.7491471 59.4382781,64.1267187 60.1764424,64.1267187 Z M54.8274253,54.4012742 C55.5655897,54.4012742 56.1646796,55.0237026 56.1646796,55.7906234 C56.1646796,56.5575441 55.5655897,57.1799726 54.8274253,57.1799726 C54.089261,57.1799726 53.490171,56.5575441 53.490171,55.7906234 C53.490171,55.0237026 54.089261,54.4012742 54.8274253,54.4012742 Z M53.7335513,59.7808343 C54.0839119,59.8850355 54.4463079,59.958671 54.8274253,59.958671 C55.2085428,59.958671 55.5709387,59.8850355 55.9212993,59.7808343 L57.2933222,62.6303896 C56.9015067,63.0527517 56.6046363,63.5626429 56.4120716,64.1267187 L53.2441163,64.1267187 C53.0502144,63.5640322 52.7533439,63.0527517 52.3615284,62.6303896 L53.7335513,59.7808343 Z M49.4784082,64.1267187 C50.2165726,64.1267187 50.8156625,64.7491471 50.8156625,65.5160679 C50.8156625,66.2829887 50.2165726,66.9054171 49.4784082,66.9054171 C48.7402439,66.9054171 48.1411539,66.2829887 48.1411539,65.5160679 C48.1411539,64.7491471 48.7402439,64.1267187 49.4784082,64.1267187 Z" id="Shape"></path>
                            </g>
                            <g id="syringe" transform="translate(317.627876, 55.907356) rotate(-30.000000) translate(-317.627876, -55.907356) translate(283.127876, 12.407356)">
                                <path d="M26.5271158,26.9960956 L18.5689811,22.8175646 L18.5689811,16.7141238 L15.9162695,16.7141238 L15.9162695,0 L13.2635579,0 L13.2635579,16.7141238 L10.6108463,16.7141238 L10.6108463,22.8175646 L2.65271158,26.9960956 L2.65271158,69.6421824 L0,69.6421824 L0,72.4278697 L5.30542316,72.4278697 L5.30542316,83.5706189 L2.65271158,83.5706189 L2.65271158,86.3563061 L26.5271158,86.3563061 L26.5271158,83.5706189 L23.8744042,83.5706189 L23.8744042,72.4278697 L29.1798274,72.4278697 L29.1798274,69.6421824 L26.5271158,69.6421824 L26.5271158,26.9960956 Z M13.2635579,19.4998111 L15.9162695,19.4998111 L15.9162695,22.2854984 L13.2635579,22.2854984 L13.2635579,19.4998111 Z M21.2216926,83.5706189 L7.95813474,83.5706189 L7.95813474,72.4278697 L21.2216926,72.4278697 L21.2216926,83.5706189 Z M23.8744042,30.6425602 L14.5899137,30.6425602 L14.5899137,33.4282475 L23.8744042,33.4282475 L23.8744042,36.2139348 L17.2426253,36.2139348 L17.2426253,38.9996221 L23.8744042,38.9996221 L23.8744042,41.7853094 L14.5899137,41.7853094 L14.5899137,44.5709967 L23.8744042,44.5709967 L23.8744042,47.356684 L17.2426253,47.356684 L17.2426253,50.1423713 L23.8744042,50.1423713 L23.8744042,52.9280586 L14.5899137,52.9280586 L14.5899137,55.7137459 L23.8744042,55.7137459 L23.8744042,58.4994332 L17.2426253,58.4994332 L17.2426253,61.2851205 L23.8744042,61.2851205 L23.8744042,64.0708078 L14.5899137,64.0708078 L14.5899137,66.8564951 L23.8744042,66.8564951 L23.8744042,69.6421824 L5.30542316,69.6421824 L5.30542316,28.7176503 L12.2502221,25.0711857 L16.9282789,25.0711857 L23.8744042,28.7176503 L23.8744042,30.6425602 Z" id="Shape"></path>
                                <path d="M63.6650779,36.5030584 L63.6650779,26.6418391 L45.0960968,26.6418391 L45.0960968,36.5030584 C42.073332,37.1488079 39.7906737,39.9526104 39.7906737,43.3063416 L39.7906737,86.3563061 L68.9705011,86.3563061 L68.9705011,43.3063416 C68.9705011,39.9539991 66.6878428,37.1488079 63.6650779,36.5030584 Z M47.7488084,29.4192562 L50.40152,29.4192562 L50.40152,33.5853818 L53.0542316,33.5853818 L53.0542316,29.4192562 L55.7069432,29.4192562 L55.7069432,33.5853818 L58.3596547,33.5853818 L58.3596547,29.4192562 L61.0123663,29.4192562 L61.0123663,36.3627989 L47.7488084,36.3627989 L47.7488084,29.4192562 Z M66.3177895,72.4692208 L63.6650779,72.4692208 L63.6650779,75.2466379 L66.3177895,75.2466379 L66.3177895,83.5788891 L42.4433853,83.5788891 L42.4433853,75.2466379 L61.0123663,75.2466379 L61.0123663,72.4692208 L42.4433853,72.4692208 L42.4433853,48.8611757 L66.3177895,48.8611757 L66.3177895,72.4692208 Z M66.3177895,46.0837586 L42.4433853,46.0837586 L42.4433853,43.3063416 C42.4433853,41.0094176 44.2286602,39.1402159 46.4224526,39.1402159 L62.3387221,39.1402159 C64.5325146,39.1402159 66.3177895,41.0094176 66.3177895,43.3063416 L66.3177895,46.0837586 Z" id="Shape"></path>
                                <path d="M49.4784082,69.6841155 C51.2195133,69.6841155 52.690493,68.5184516 53.2441163,66.9054171 L56.4120716,66.9054171 C56.9656949,68.5184516 58.4366746,69.6841155 60.1777797,69.6841155 C62.3895983,69.6841155 64.1895425,67.8140515 64.1895425,65.5160679 C64.1895425,63.2180843 62.388261,61.3480202 60.1764424,61.3480202 C60.0106229,61.3480202 59.8514896,61.3785859 59.6910191,61.3994262 L58.1277689,58.152517 C58.5744118,57.480072 58.8391881,56.6673027 58.8391881,55.7906234 C58.8391881,53.4926398 57.0392439,51.6225757 54.8274253,51.6225757 C52.6156067,51.6225757 50.8156625,53.4926398 50.8156625,55.7906234 C50.8156625,56.6673027 51.0804388,57.480072 51.5270818,58.1511277 L49.9638315,61.3980368 C49.803361,61.3785859 49.6442277,61.3480202 49.4784082,61.3480202 C47.2665896,61.3480202 45.4666454,63.2180843 45.4666454,65.5160679 C45.4666454,67.8140515 47.2665896,69.6841155 49.4784082,69.6841155 Z M60.1764424,64.1267187 C60.9146068,64.1267187 61.5136967,64.7491471 61.5136967,65.5160679 C61.5136967,66.2829887 60.9146068,66.9054171 60.1764424,66.9054171 C59.4382781,66.9054171 58.8391881,66.2829887 58.8391881,65.5160679 C58.8391881,64.7491471 59.4382781,64.1267187 60.1764424,64.1267187 Z M54.8274253,54.4012742 C55.5655897,54.4012742 56.1646796,55.0237026 56.1646796,55.7906234 C56.1646796,56.5575441 55.5655897,57.1799726 54.8274253,57.1799726 C54.089261,57.1799726 53.490171,56.5575441 53.490171,55.7906234 C53.490171,55.0237026 54.089261,54.4012742 54.8274253,54.4012742 Z M53.7335513,59.7808343 C54.0839119,59.8850355 54.4463079,59.958671 54.8274253,59.958671 C55.2085428,59.958671 55.5709387,59.8850355 55.9212993,59.7808343 L57.2933222,62.6303896 C56.9015067,63.0527517 56.6046363,63.5626429 56.4120716,64.1267187 L53.2441163,64.1267187 C53.0502144,63.5640322 52.7533439,63.0527517 52.3615284,62.6303896 L53.7335513,59.7808343 Z M49.4784082,64.1267187 C50.2165726,64.1267187 50.8156625,64.7491471 50.8156625,65.5160679 C50.8156625,66.2829887 50.2165726,66.9054171 49.4784082,66.9054171 C48.7402439,66.9054171 48.1411539,66.2829887 48.1411539,65.5160679 C48.1411539,64.7491471 48.7402439,64.1267187 49.4784082,64.1267187 Z" id="Shape"></path>
                            </g>
                            <g id="syringe" transform="translate(425.627876, 55.907356) rotate(-30.000000) translate(-425.627876, -55.907356) translate(391.127876, 12.407356)">
                                <path d="M26.5271158,26.9960956 L18.5689811,22.8175646 L18.5689811,16.7141238 L15.9162695,16.7141238 L15.9162695,0 L13.2635579,0 L13.2635579,16.7141238 L10.6108463,16.7141238 L10.6108463,22.8175646 L2.65271158,26.9960956 L2.65271158,69.6421824 L0,69.6421824 L0,72.4278697 L5.30542316,72.4278697 L5.30542316,83.5706189 L2.65271158,83.5706189 L2.65271158,86.3563061 L26.5271158,86.3563061 L26.5271158,83.5706189 L23.8744042,83.5706189 L23.8744042,72.4278697 L29.1798274,72.4278697 L29.1798274,69.6421824 L26.5271158,69.6421824 L26.5271158,26.9960956 Z M13.2635579,19.4998111 L15.9162695,19.4998111 L15.9162695,22.2854984 L13.2635579,22.2854984 L13.2635579,19.4998111 Z M21.2216926,83.5706189 L7.95813474,83.5706189 L7.95813474,72.4278697 L21.2216926,72.4278697 L21.2216926,83.5706189 Z M23.8744042,30.6425602 L14.5899137,30.6425602 L14.5899137,33.4282475 L23.8744042,33.4282475 L23.8744042,36.2139348 L17.2426253,36.2139348 L17.2426253,38.9996221 L23.8744042,38.9996221 L23.8744042,41.7853094 L14.5899137,41.7853094 L14.5899137,44.5709967 L23.8744042,44.5709967 L23.8744042,47.356684 L17.2426253,47.356684 L17.2426253,50.1423713 L23.8744042,50.1423713 L23.8744042,52.9280586 L14.5899137,52.9280586 L14.5899137,55.7137459 L23.8744042,55.7137459 L23.8744042,58.4994332 L17.2426253,58.4994332 L17.2426253,61.2851205 L23.8744042,61.2851205 L23.8744042,64.0708078 L14.5899137,64.0708078 L14.5899137,66.8564951 L23.8744042,66.8564951 L23.8744042,69.6421824 L5.30542316,69.6421824 L5.30542316,28.7176503 L12.2502221,25.0711857 L16.9282789,25.0711857 L23.8744042,28.7176503 L23.8744042,30.6425602 Z" id="Shape"></path>
                                <path d="M63.6650779,36.5030584 L63.6650779,26.6418391 L45.0960968,26.6418391 L45.0960968,36.5030584 C42.073332,37.1488079 39.7906737,39.9526104 39.7906737,43.3063416 L39.7906737,86.3563061 L68.9705011,86.3563061 L68.9705011,43.3063416 C68.9705011,39.9539991 66.6878428,37.1488079 63.6650779,36.5030584 Z M47.7488084,29.4192562 L50.40152,29.4192562 L50.40152,33.5853818 L53.0542316,33.5853818 L53.0542316,29.4192562 L55.7069432,29.4192562 L55.7069432,33.5853818 L58.3596547,33.5853818 L58.3596547,29.4192562 L61.0123663,29.4192562 L61.0123663,36.3627989 L47.7488084,36.3627989 L47.7488084,29.4192562 Z M66.3177895,72.4692208 L63.6650779,72.4692208 L63.6650779,75.2466379 L66.3177895,75.2466379 L66.3177895,83.5788891 L42.4433853,83.5788891 L42.4433853,75.2466379 L61.0123663,75.2466379 L61.0123663,72.4692208 L42.4433853,72.4692208 L42.4433853,48.8611757 L66.3177895,48.8611757 L66.3177895,72.4692208 Z M66.3177895,46.0837586 L42.4433853,46.0837586 L42.4433853,43.3063416 C42.4433853,41.0094176 44.2286602,39.1402159 46.4224526,39.1402159 L62.3387221,39.1402159 C64.5325146,39.1402159 66.3177895,41.0094176 66.3177895,43.3063416 L66.3177895,46.0837586 Z" id="Shape"></path>
                                <path d="M49.4784082,69.6841155 C51.2195133,69.6841155 52.690493,68.5184516 53.2441163,66.9054171 L56.4120716,66.9054171 C56.9656949,68.5184516 58.4366746,69.6841155 60.1777797,69.6841155 C62.3895983,69.6841155 64.1895425,67.8140515 64.1895425,65.5160679 C64.1895425,63.2180843 62.388261,61.3480202 60.1764424,61.3480202 C60.0106229,61.3480202 59.8514896,61.3785859 59.6910191,61.3994262 L58.1277689,58.152517 C58.5744118,57.480072 58.8391881,56.6673027 58.8391881,55.7906234 C58.8391881,53.4926398 57.0392439,51.6225757 54.8274253,51.6225757 C52.6156067,51.6225757 50.8156625,53.4926398 50.8156625,55.7906234 C50.8156625,56.6673027 51.0804388,57.480072 51.5270818,58.1511277 L49.9638315,61.3980368 C49.803361,61.3785859 49.6442277,61.3480202 49.4784082,61.3480202 C47.2665896,61.3480202 45.4666454,63.2180843 45.4666454,65.5160679 C45.4666454,67.8140515 47.2665896,69.6841155 49.4784082,69.6841155 Z M60.1764424,64.1267187 C60.9146068,64.1267187 61.5136967,64.7491471 61.5136967,65.5160679 C61.5136967,66.2829887 60.9146068,66.9054171 60.1764424,66.9054171 C59.4382781,66.9054171 58.8391881,66.2829887 58.8391881,65.5160679 C58.8391881,64.7491471 59.4382781,64.1267187 60.1764424,64.1267187 Z M54.8274253,54.4012742 C55.5655897,54.4012742 56.1646796,55.0237026 56.1646796,55.7906234 C56.1646796,56.5575441 55.5655897,57.1799726 54.8274253,57.1799726 C54.089261,57.1799726 53.490171,56.5575441 53.490171,55.7906234 C53.490171,55.0237026 54.089261,54.4012742 54.8274253,54.4012742 Z M53.7335513,59.7808343 C54.0839119,59.8850355 54.4463079,59.958671 54.8274253,59.958671 C55.2085428,59.958671 55.5709387,59.8850355 55.9212993,59.7808343 L57.2933222,62.6303896 C56.9015067,63.0527517 56.6046363,63.5626429 56.4120716,64.1267187 L53.2441163,64.1267187 C53.0502144,63.5640322 52.7533439,63.0527517 52.3615284,62.6303896 L53.7335513,59.7808343 Z M49.4784082,64.1267187 C50.2165726,64.1267187 50.8156625,64.7491471 50.8156625,65.5160679 C50.8156625,66.2829887 50.2165726,66.9054171 49.4784082,66.9054171 C48.7402439,66.9054171 48.1411539,66.2829887 48.1411539,65.5160679 C48.1411539,64.7491471 48.7402439,64.1267187 49.4784082,64.1267187 Z" id="Shape"></path>
                            </g>
                            <g id="syringe" transform="translate(51.377876, 140.489092) rotate(-30.000000) translate(-51.377876, -140.489092) translate(16.877876, 97.489092)">
                                <path d="M63.6923077,36.3524468 L63.6923077,26.5319149 L45.1153846,26.5319149 L45.1153846,36.3524468 C42.0913269,36.9955319 39.8076923,39.787766 39.8076923,43.1276596 L39.8076923,86 L69,86 L69,43.1276596 C69,39.7891489 66.7163654,36.9955319 63.6923077,36.3524468 Z M47.7692308,29.2978723 L50.4230769,29.2978723 L50.4230769,33.4468085 L53.0769231,33.4468085 L53.0769231,29.2978723 L55.7307692,29.2978723 L55.7307692,33.4468085 L58.3846154,33.4468085 L58.3846154,29.2978723 L61.0384615,29.2978723 L61.0384615,36.212766 L47.7692308,36.212766 L47.7692308,29.2978723 Z M66.3461538,72.1702128 L63.6923077,72.1702128 L63.6923077,74.9361702 L66.3461538,74.9361702 L66.3461538,83.2340426 L42.4615385,83.2340426 L42.4615385,74.9361702 L61.0384615,74.9361702 L61.0384615,72.1702128 L42.4615385,72.1702128 L42.4615385,48.6595745 L66.3461538,48.6595745 L66.3461538,72.1702128 Z M66.3461538,45.893617 L42.4615385,45.893617 L42.4615385,43.1276596 C42.4615385,40.8402128 44.2475769,38.9787234 46.4423077,38.9787234 L62.3653846,38.9787234 C64.5601154,38.9787234 66.3461538,40.8402128 66.3461538,43.1276596 L66.3461538,45.893617 Z" id="Shape"></path>
                            </g>
                            <g id="syringe" transform="translate(101.627876, 55.907356) rotate(-30.000000) translate(-101.627876, -55.907356) translate(67.127876, 12.407356)">
                                <path d="M26.5271158,26.9960956 L18.5689811,22.8175646 L18.5689811,16.7141238 L15.9162695,16.7141238 L15.9162695,0 L13.2635579,0 L13.2635579,16.7141238 L10.6108463,16.7141238 L10.6108463,22.8175646 L2.65271158,26.9960956 L2.65271158,69.6421824 L0,69.6421824 L0,72.4278697 L5.30542316,72.4278697 L5.30542316,83.5706189 L2.65271158,83.5706189 L2.65271158,86.3563061 L26.5271158,86.3563061 L26.5271158,83.5706189 L23.8744042,83.5706189 L23.8744042,72.4278697 L29.1798274,72.4278697 L29.1798274,69.6421824 L26.5271158,69.6421824 L26.5271158,26.9960956 Z M13.2635579,19.4998111 L15.9162695,19.4998111 L15.9162695,22.2854984 L13.2635579,22.2854984 L13.2635579,19.4998111 Z M21.2216926,83.5706189 L7.95813474,83.5706189 L7.95813474,72.4278697 L21.2216926,72.4278697 L21.2216926,83.5706189 Z M23.8744042,30.6425602 L14.5899137,30.6425602 L14.5899137,33.4282475 L23.8744042,33.4282475 L23.8744042,36.2139348 L17.2426253,36.2139348 L17.2426253,38.9996221 L23.8744042,38.9996221 L23.8744042,41.7853094 L14.5899137,41.7853094 L14.5899137,44.5709967 L23.8744042,44.5709967 L23.8744042,47.356684 L17.2426253,47.356684 L17.2426253,50.1423713 L23.8744042,50.1423713 L23.8744042,52.9280586 L14.5899137,52.9280586 L14.5899137,55.7137459 L23.8744042,55.7137459 L23.8744042,58.4994332 L17.2426253,58.4994332 L17.2426253,61.2851205 L23.8744042,61.2851205 L23.8744042,64.0708078 L14.5899137,64.0708078 L14.5899137,66.8564951 L23.8744042,66.8564951 L23.8744042,69.6421824 L5.30542316,69.6421824 L5.30542316,28.7176503 L12.2502221,25.0711857 L16.9282789,25.0711857 L23.8744042,28.7176503 L23.8744042,30.6425602 Z" id="Shape"></path>
                                <path d="M63.6650779,36.5030584 L63.6650779,26.6418391 L45.0960968,26.6418391 L45.0960968,36.5030584 C42.073332,37.1488079 39.7906737,39.9526104 39.7906737,43.3063416 L39.7906737,86.3563061 L68.9705011,86.3563061 L68.9705011,43.3063416 C68.9705011,39.9539991 66.6878428,37.1488079 63.6650779,36.5030584 Z M47.7488084,29.4192562 L50.40152,29.4192562 L50.40152,33.5853818 L53.0542316,33.5853818 L53.0542316,29.4192562 L55.7069432,29.4192562 L55.7069432,33.5853818 L58.3596547,33.5853818 L58.3596547,29.4192562 L61.0123663,29.4192562 L61.0123663,36.3627989 L47.7488084,36.3627989 L47.7488084,29.4192562 Z M66.3177895,72.4692208 L63.6650779,72.4692208 L63.6650779,75.2466379 L66.3177895,75.2466379 L66.3177895,83.5788891 L42.4433853,83.5788891 L42.4433853,75.2466379 L61.0123663,75.2466379 L61.0123663,72.4692208 L42.4433853,72.4692208 L42.4433853,48.8611757 L66.3177895,48.8611757 L66.3177895,72.4692208 Z M66.3177895,46.0837586 L42.4433853,46.0837586 L42.4433853,43.3063416 C42.4433853,41.0094176 44.2286602,39.1402159 46.4224526,39.1402159 L62.3387221,39.1402159 C64.5325146,39.1402159 66.3177895,41.0094176 66.3177895,43.3063416 L66.3177895,46.0837586 Z" id="Shape"></path>
                                <path d="M49.4784082,69.6841155 C51.2195133,69.6841155 52.690493,68.5184516 53.2441163,66.9054171 L56.4120716,66.9054171 C56.9656949,68.5184516 58.4366746,69.6841155 60.1777797,69.6841155 C62.3895983,69.6841155 64.1895425,67.8140515 64.1895425,65.5160679 C64.1895425,63.2180843 62.388261,61.3480202 60.1764424,61.3480202 C60.0106229,61.3480202 59.8514896,61.3785859 59.6910191,61.3994262 L58.1277689,58.152517 C58.5744118,57.480072 58.8391881,56.6673027 58.8391881,55.7906234 C58.8391881,53.4926398 57.0392439,51.6225757 54.8274253,51.6225757 C52.6156067,51.6225757 50.8156625,53.4926398 50.8156625,55.7906234 C50.8156625,56.6673027 51.0804388,57.480072 51.5270818,58.1511277 L49.9638315,61.3980368 C49.803361,61.3785859 49.6442277,61.3480202 49.4784082,61.3480202 C47.2665896,61.3480202 45.4666454,63.2180843 45.4666454,65.5160679 C45.4666454,67.8140515 47.2665896,69.6841155 49.4784082,69.6841155 Z M60.1764424,64.1267187 C60.9146068,64.1267187 61.5136967,64.7491471 61.5136967,65.5160679 C61.5136967,66.2829887 60.9146068,66.9054171 60.1764424,66.9054171 C59.4382781,66.9054171 58.8391881,66.2829887 58.8391881,65.5160679 C58.8391881,64.7491471 59.4382781,64.1267187 60.1764424,64.1267187 Z M54.8274253,54.4012742 C55.5655897,54.4012742 56.1646796,55.0237026 56.1646796,55.7906234 C56.1646796,56.5575441 55.5655897,57.1799726 54.8274253,57.1799726 C54.089261,57.1799726 53.490171,56.5575441 53.490171,55.7906234 C53.490171,55.0237026 54.089261,54.4012742 54.8274253,54.4012742 Z M53.7335513,59.7808343 C54.0839119,59.8850355 54.4463079,59.958671 54.8274253,59.958671 C55.2085428,59.958671 55.5709387,59.8850355 55.9212993,59.7808343 L57.2933222,62.6303896 C56.9015067,63.0527517 56.6046363,63.5626429 56.4120716,64.1267187 L53.2441163,64.1267187 C53.0502144,63.5640322 52.7533439,63.0527517 52.3615284,62.6303896 L53.7335513,59.7808343 Z M49.4784082,64.1267187 C50.2165726,64.1267187 50.8156625,64.7491471 50.8156625,65.5160679 C50.8156625,66.2829887 50.2165726,66.9054171 49.4784082,66.9054171 C48.7402439,66.9054171 48.1411539,66.2829887 48.1411539,65.5160679 C48.1411539,64.7491471 48.7402439,64.1267187 49.4784082,64.1267187 Z" id="Shape"></path>
                            </g>
                            <g id="syringe" transform="translate(209.627876, 55.907356) rotate(-30.000000) translate(-209.627876, -55.907356) translate(175.127876, 12.407356)">
                                <path d="M26.5271158,26.9960956 L18.5689811,22.8175646 L18.5689811,16.7141238 L15.9162695,16.7141238 L15.9162695,0 L13.2635579,0 L13.2635579,16.7141238 L10.6108463,16.7141238 L10.6108463,22.8175646 L2.65271158,26.9960956 L2.65271158,69.6421824 L0,69.6421824 L0,72.4278697 L5.30542316,72.4278697 L5.30542316,83.5706189 L2.65271158,83.5706189 L2.65271158,86.3563061 L26.5271158,86.3563061 L26.5271158,83.5706189 L23.8744042,83.5706189 L23.8744042,72.4278697 L29.1798274,72.4278697 L29.1798274,69.6421824 L26.5271158,69.6421824 L26.5271158,26.9960956 Z M13.2635579,19.4998111 L15.9162695,19.4998111 L15.9162695,22.2854984 L13.2635579,22.2854984 L13.2635579,19.4998111 Z M21.2216926,83.5706189 L7.95813474,83.5706189 L7.95813474,72.4278697 L21.2216926,72.4278697 L21.2216926,83.5706189 Z M23.8744042,30.6425602 L14.5899137,30.6425602 L14.5899137,33.4282475 L23.8744042,33.4282475 L23.8744042,36.2139348 L17.2426253,36.2139348 L17.2426253,38.9996221 L23.8744042,38.9996221 L23.8744042,41.7853094 L14.5899137,41.7853094 L14.5899137,44.5709967 L23.8744042,44.5709967 L23.8744042,47.356684 L17.2426253,47.356684 L17.2426253,50.1423713 L23.8744042,50.1423713 L23.8744042,52.9280586 L14.5899137,52.9280586 L14.5899137,55.7137459 L23.8744042,55.7137459 L23.8744042,58.4994332 L17.2426253,58.4994332 L17.2426253,61.2851205 L23.8744042,61.2851205 L23.8744042,64.0708078 L14.5899137,64.0708078 L14.5899137,66.8564951 L23.8744042,66.8564951 L23.8744042,69.6421824 L5.30542316,69.6421824 L5.30542316,28.7176503 L12.2502221,25.0711857 L16.9282789,25.0711857 L23.8744042,28.7176503 L23.8744042,30.6425602 Z" id="Shape"></path>
                                <path d="M63.6650779,36.5030584 L63.6650779,26.6418391 L45.0960968,26.6418391 L45.0960968,36.5030584 C42.073332,37.1488079 39.7906737,39.9526104 39.7906737,43.3063416 L39.7906737,86.3563061 L68.9705011,86.3563061 L68.9705011,43.3063416 C68.9705011,39.9539991 66.6878428,37.1488079 63.6650779,36.5030584 Z M47.7488084,29.4192562 L50.40152,29.4192562 L50.40152,33.5853818 L53.0542316,33.5853818 L53.0542316,29.4192562 L55.7069432,29.4192562 L55.7069432,33.5853818 L58.3596547,33.5853818 L58.3596547,29.4192562 L61.0123663,29.4192562 L61.0123663,36.3627989 L47.7488084,36.3627989 L47.7488084,29.4192562 Z M66.3177895,72.4692208 L63.6650779,72.4692208 L63.6650779,75.2466379 L66.3177895,75.2466379 L66.3177895,83.5788891 L42.4433853,83.5788891 L42.4433853,75.2466379 L61.0123663,75.2466379 L61.0123663,72.4692208 L42.4433853,72.4692208 L42.4433853,48.8611757 L66.3177895,48.8611757 L66.3177895,72.4692208 Z M66.3177895,46.0837586 L42.4433853,46.0837586 L42.4433853,43.3063416 C42.4433853,41.0094176 44.2286602,39.1402159 46.4224526,39.1402159 L62.3387221,39.1402159 C64.5325146,39.1402159 66.3177895,41.0094176 66.3177895,43.3063416 L66.3177895,46.0837586 Z" id="Shape"></path>
                                <path d="M49.4784082,69.6841155 C51.2195133,69.6841155 52.690493,68.5184516 53.2441163,66.9054171 L56.4120716,66.9054171 C56.9656949,68.5184516 58.4366746,69.6841155 60.1777797,69.6841155 C62.3895983,69.6841155 64.1895425,67.8140515 64.1895425,65.5160679 C64.1895425,63.2180843 62.388261,61.3480202 60.1764424,61.3480202 C60.0106229,61.3480202 59.8514896,61.3785859 59.6910191,61.3994262 L58.1277689,58.152517 C58.5744118,57.480072 58.8391881,56.6673027 58.8391881,55.7906234 C58.8391881,53.4926398 57.0392439,51.6225757 54.8274253,51.6225757 C52.6156067,51.6225757 50.8156625,53.4926398 50.8156625,55.7906234 C50.8156625,56.6673027 51.0804388,57.480072 51.5270818,58.1511277 L49.9638315,61.3980368 C49.803361,61.3785859 49.6442277,61.3480202 49.4784082,61.3480202 C47.2665896,61.3480202 45.4666454,63.2180843 45.4666454,65.5160679 C45.4666454,67.8140515 47.2665896,69.6841155 49.4784082,69.6841155 Z M60.1764424,64.1267187 C60.9146068,64.1267187 61.5136967,64.7491471 61.5136967,65.5160679 C61.5136967,66.2829887 60.9146068,66.9054171 60.1764424,66.9054171 C59.4382781,66.9054171 58.8391881,66.2829887 58.8391881,65.5160679 C58.8391881,64.7491471 59.4382781,64.1267187 60.1764424,64.1267187 Z M54.8274253,54.4012742 C55.5655897,54.4012742 56.1646796,55.0237026 56.1646796,55.7906234 C56.1646796,56.5575441 55.5655897,57.1799726 54.8274253,57.1799726 C54.089261,57.1799726 53.490171,56.5575441 53.490171,55.7906234 C53.490171,55.0237026 54.089261,54.4012742 54.8274253,54.4012742 Z M53.7335513,59.7808343 C54.0839119,59.8850355 54.4463079,59.958671 54.8274253,59.958671 C55.2085428,59.958671 55.5709387,59.8850355 55.9212993,59.7808343 L57.2933222,62.6303896 C56.9015067,63.0527517 56.6046363,63.5626429 56.4120716,64.1267187 L53.2441163,64.1267187 C53.0502144,63.5640322 52.7533439,63.0527517 52.3615284,62.6303896 L53.7335513,59.7808343 Z M49.4784082,64.1267187 C50.2165726,64.1267187 50.8156625,64.7491471 50.8156625,65.5160679 C50.8156625,66.2829887 50.2165726,66.9054171 49.4784082,66.9054171 C48.7402439,66.9054171 48.1411539,66.2829887 48.1411539,65.5160679 C48.1411539,64.7491471 48.7402439,64.1267187 49.4784082,64.1267187 Z" id="Shape"></path>
                            </g>
                        </g>
                    </g>
                </g>
            </g>
        </g>
    </g>
</svg>