<?xml version="1.0" encoding="UTF-8"?>
<svg width="360px" height="188px" viewBox="0 0 360 188" version="1.1" xmlns="http://www.w3.org/2000/svg" xmlns:xlink="http://www.w3.org/1999/xlink">
    <!-- Generator: Sketch 48.2 (47327) - http://www.bohemiancoding.com/sketch -->
    <title>pattern</title>
    <desc>Created with Sketch.</desc>
    <defs></defs>
    <g id="Homepage" stroke="none" stroke-width="1" fill="none" fill-rule="evenodd" transform="translate(-540.000000, -2070.000000)">
        <g id="Group-9" transform="translate(0.000000, 1525.000000)" fill="#FFBC42" fill-rule="nonzero">
            <g id="Group-11" transform="translate(148.000000, 336.000000)">
                <g id="Group-16">
                    <g id="Group-7" transform="translate(392.000000, 0.000000)">
                        <g id="pattern" transform="translate(-96.000000, 209.000000)">
                            <g id="groceries" transform="translate(50.400000, 0.000000)">
                                <path d="M74.516129,13.5343619 L70.4516129,13.5343619 L70.4516129,10.8274895 L73.1612903,10.8274895 L73.1612903,4.06030856 C73.1612903,1.82172511 71.3376774,0 69.0967742,0 L58.2580645,0 C56.0171613,0 54.1935484,1.82172511 54.1935484,4.06030856 L54.1935484,10.8274895 L56.9032258,10.8274895 L56.9032258,13.5343619 L52.8387097,13.5343619 C47.6103871,13.5343619 43.3548387,17.7841515 43.3548387,23.0084151 L43.3548387,47.3702665 L43.3548387,51.9435273 C42.4755484,51.7188569 41.5705161,51.5632118 40.6451613,51.4874194 L40.6451613,50.0771388 L40.6451613,18.7897546 L36.5806452,10.5134923 L36.5806452,0 L4.06451613,0 L4.06451613,10.5134923 L0,18.7897546 L0,83.9130435 L39.2903226,83.9130435 C41.1762581,83.9130435 43.0012258,83.5787447 44.7096774,82.9764656 L44.7096774,83.9130435 L84,83.9130435 L84,23.0084151 C84,17.7841515 79.7444516,13.5343619 74.516129,13.5343619 Z M56.9032258,4.06030856 C56.9032258,3.31456522 57.5101935,2.70687237 58.2580645,2.70687237 L69.0967742,2.70687237 C69.8446452,2.70687237 70.4516129,3.31456522 70.4516129,4.06030856 L70.4516129,8.12061711 L67.7419355,8.12061711 L67.7419355,5.41374474 L65.0322581,5.41374474 L65.0322581,8.12061711 L62.3225806,8.12061711 L62.3225806,5.41374474 L59.6129032,5.41374474 L59.6129032,8.12061711 L56.9032258,8.12061711 L56.9032258,4.06030856 Z M67.7419355,10.8274895 L67.7419355,13.5343619 L59.6129032,13.5343619 L59.6129032,10.8274895 L67.7419355,10.8274895 Z M46.0645161,23.0084151 C46.0645161,19.2769916 49.1034194,16.2412342 52.8387097,16.2412342 L74.516129,16.2412342 C78.2514194,16.2412342 81.2903226,19.2769916 81.2903226,23.0084151 L81.2903226,25.7152875 L46.0645161,25.7152875 L46.0645161,23.0084151 Z M46.0645161,28.4221599 L81.2903226,28.4221599 L81.2903226,46.0168303 L70.4868387,46.0168303 C71.7251613,44.3832328 73.668,43.3099579 75.8709677,43.3099579 L77.2258065,43.3099579 L77.2258065,40.6030856 L75.8709677,40.6030856 C72.0977419,40.6030856 68.8420645,42.8213675 67.3151613,46.0168303 L46.0645161,46.0168303 L46.0645161,28.4221599 Z M81.2903226,48.7237027 L81.2903226,58.7134151 C78.6118065,54.6842356 74.1841935,51.9218724 69.0967742,51.4996003 L69.0967742,50.0771388 C69.0967742,49.6142637 69.1441935,49.1608626 69.2336129,48.7237027 L81.2903226,48.7237027 Z M46.0645161,48.7237027 L66.4954839,48.7237027 C66.4318065,49.1676297 66.3870968,49.6169705 66.3870968,50.0771388 L66.3870968,51.4996003 C60.8458065,51.9597686 56.0876129,55.1971879 53.5201935,59.8205259 C51.8266452,56.7387518 49.2050323,54.3323422 46.0645161,52.9031136 L46.0645161,48.7237027 Z M6.77419355,2.70687237 L33.8709677,2.70687237 L33.8709677,9.4740533 L26.9599355,9.4740533 C26.3299355,6.38957223 23.5931613,4.06030856 20.3225806,4.06030856 C17.052,4.06030856 14.3152258,6.38957223 13.6852258,9.4740533 L6.77419355,9.4740533 L6.77419355,2.70687237 Z M24.3870968,10.8274895 C24.3870968,13.0660729 22.5634839,14.887798 20.3225806,14.887798 C18.0816774,14.887798 16.2580645,13.0660729 16.2580645,10.8274895 C16.2580645,8.58890603 18.0816774,6.76718093 20.3225806,6.76718093 C22.5634839,6.76718093 24.3870968,8.58890603 24.3870968,10.8274895 Z M6.26341935,12.1809257 L13.6852258,12.1809257 C14.3152258,15.2654067 17.0506452,17.5946704 20.3225806,17.5946704 C23.5945161,17.5946704 26.3299355,15.2654067 26.9599355,12.1809257 L34.3817419,12.1809257 L37.7051613,18.9481066 L2.94,18.9481066 L6.26341935,12.1809257 Z M2.70967742,21.654979 L37.9354839,21.654979 L37.9354839,32.4824684 L2.70967742,32.4824684 L2.70967742,21.654979 Z M2.70967742,35.1893408 L37.9354839,35.1893408 L37.9354839,43.4601893 C36.212129,41.6993689 33.8140645,40.6030856 31.1612903,40.6030856 L29.8064516,40.6030856 L29.8064516,43.3099579 L31.1612903,43.3099579 C34.8965806,43.3099579 37.9354839,46.3457153 37.9354839,50.0771388 L37.9354839,51.4996003 C33.684,51.8528471 29.9012903,53.8464586 27.2065161,56.8443198 L2.70967742,56.8443198 L2.70967742,35.1893408 Z M2.70967742,81.2061711 L2.70967742,59.5511921 L25.2311613,59.5511921 C23.8410968,61.9427139 23.0322581,64.7118443 23.0322581,67.6718093 C23.0322581,73.318345 25.9343226,78.2949299 30.3226452,81.2061711 L2.70967742,81.2061711 Z M39.2903226,81.2061711 C31.8197419,81.2061711 25.7419355,75.1346564 25.7419355,67.6718093 C25.7419355,60.6664236 31.0989677,54.8872511 37.9354839,54.2064727 L37.9354839,59.4023142 C35.8747742,58.9651543 35.1106452,57.6428471 35.0740645,57.5765288 L32.6597419,58.8040954 C32.7288387,58.9448527 34.4440645,62.2580645 39.2903226,62.2580645 C44.1365806,62.2580645 45.8518065,58.9448527 45.9222581,58.8027419 L43.5079355,57.5751753 C43.4713548,57.6428471 42.7072258,58.9651543 40.6465161,59.4009607 L40.6465161,54.210533 C45.9087097,54.728899 50.3742581,58.2302384 52.1043871,63.286676 C51.7087742,64.6847756 51.483871,66.150547 51.483871,67.6718093 C51.483871,69.1971318 51.710129,70.6669635 52.1057419,72.06777 C50.2265806,77.5356522 45.0863226,81.2061711 39.2903226,81.2061711 Z M48.2620645,81.2061711 C50.4230323,79.7769425 52.2358065,77.8401753 53.5174839,75.5203857 C54.7896774,77.8103997 56.5970323,79.7620547 58.7742581,81.2061711 L48.2620645,81.2061711 Z M81.2903226,81.2061711 L76.7096129,81.2061711 C78.5250968,80.0016129 80.0845161,78.4438079 81.2903226,76.6302034 L81.2903226,81.2061711 Z M67.7432903,81.2048177 C60.2727097,81.2048177 54.1935484,75.1346564 54.1935484,67.6718093 C54.1935484,60.6664236 59.5505806,54.8872511 66.3870968,54.2064727 L66.3870968,59.4023142 C64.3263871,58.9651543 63.5636129,57.645554 63.5351613,57.59277 L61.1113548,58.8040954 C61.1804516,58.9448527 62.8956774,62.2580645 67.7419355,62.2580645 C72.5881935,62.2580645 74.3034194,58.9448527 74.373871,58.8027419 L71.9595484,57.5751753 C71.9229677,57.6428471 71.1588387,58.9651543 69.098129,59.4009607 L69.098129,54.2051192 C75.9346452,54.8872511 81.2916774,60.6650701 81.2916774,67.6704558 C81.2916774,75.1333029 75.213871,81.2048177 67.7432903,81.2048177 Z" id="Shape"></path>
                                <rect id="Rectangle-path" x="49.35" y="30.4184783" width="2.1" height="2.09782609"></rect>
                                <rect id="Rectangle-path" x="54.6" y="30.4184783" width="23.1" height="2.09782609"></rect>
                            </g>
                            <g id="groceries" transform="translate(167.600000, 0.000000)">
                                <path d="M74.516129,13.5343619 L70.4516129,13.5343619 L70.4516129,10.8274895 L73.1612903,10.8274895 L73.1612903,4.06030856 C73.1612903,1.82172511 71.3376774,0 69.0967742,0 L58.2580645,0 C56.0171613,0 54.1935484,1.82172511 54.1935484,4.06030856 L54.1935484,10.8274895 L56.9032258,10.8274895 L56.9032258,13.5343619 L52.8387097,13.5343619 C47.6103871,13.5343619 43.3548387,17.7841515 43.3548387,23.0084151 L43.3548387,47.3702665 L43.3548387,51.9435273 C42.4755484,51.7188569 41.5705161,51.5632118 40.6451613,51.4874194 L40.6451613,50.0771388 L40.6451613,18.7897546 L36.5806452,10.5134923 L36.5806452,0 L4.06451613,0 L4.06451613,10.5134923 L0,18.7897546 L0,83.9130435 L39.2903226,83.9130435 C41.1762581,83.9130435 43.0012258,83.5787447 44.7096774,82.9764656 L44.7096774,83.9130435 L84,83.9130435 L84,23.0084151 C84,17.7841515 79.7444516,13.5343619 74.516129,13.5343619 Z M56.9032258,4.06030856 C56.9032258,3.31456522 57.5101935,2.70687237 58.2580645,2.70687237 L69.0967742,2.70687237 C69.8446452,2.70687237 70.4516129,3.31456522 70.4516129,4.06030856 L70.4516129,8.12061711 L67.7419355,8.12061711 L67.7419355,5.41374474 L65.0322581,5.41374474 L65.0322581,8.12061711 L62.3225806,8.12061711 L62.3225806,5.41374474 L59.6129032,5.41374474 L59.6129032,8.12061711 L56.9032258,8.12061711 L56.9032258,4.06030856 Z M67.7419355,10.8274895 L67.7419355,13.5343619 L59.6129032,13.5343619 L59.6129032,10.8274895 L67.7419355,10.8274895 Z M46.0645161,23.0084151 C46.0645161,19.2769916 49.1034194,16.2412342 52.8387097,16.2412342 L74.516129,16.2412342 C78.2514194,16.2412342 81.2903226,19.2769916 81.2903226,23.0084151 L81.2903226,25.7152875 L46.0645161,25.7152875 L46.0645161,23.0084151 Z M46.0645161,28.4221599 L81.2903226,28.4221599 L81.2903226,46.0168303 L70.4868387,46.0168303 C71.7251613,44.3832328 73.668,43.3099579 75.8709677,43.3099579 L77.2258065,43.3099579 L77.2258065,40.6030856 L75.8709677,40.6030856 C72.0977419,40.6030856 68.8420645,42.8213675 67.3151613,46.0168303 L46.0645161,46.0168303 L46.0645161,28.4221599 Z M81.2903226,48.7237027 L81.2903226,58.7134151 C78.6118065,54.6842356 74.1841935,51.9218724 69.0967742,51.4996003 L69.0967742,50.0771388 C69.0967742,49.6142637 69.1441935,49.1608626 69.2336129,48.7237027 L81.2903226,48.7237027 Z M46.0645161,48.7237027 L66.4954839,48.7237027 C66.4318065,49.1676297 66.3870968,49.6169705 66.3870968,50.0771388 L66.3870968,51.4996003 C60.8458065,51.9597686 56.0876129,55.1971879 53.5201935,59.8205259 C51.8266452,56.7387518 49.2050323,54.3323422 46.0645161,52.9031136 L46.0645161,48.7237027 Z M6.77419355,2.70687237 L33.8709677,2.70687237 L33.8709677,9.4740533 L26.9599355,9.4740533 C26.3299355,6.38957223 23.5931613,4.06030856 20.3225806,4.06030856 C17.052,4.06030856 14.3152258,6.38957223 13.6852258,9.4740533 L6.77419355,9.4740533 L6.77419355,2.70687237 Z M24.3870968,10.8274895 C24.3870968,13.0660729 22.5634839,14.887798 20.3225806,14.887798 C18.0816774,14.887798 16.2580645,13.0660729 16.2580645,10.8274895 C16.2580645,8.58890603 18.0816774,6.76718093 20.3225806,6.76718093 C22.5634839,6.76718093 24.3870968,8.58890603 24.3870968,10.8274895 Z M6.26341935,12.1809257 L13.6852258,12.1809257 C14.3152258,15.2654067 17.0506452,17.5946704 20.3225806,17.5946704 C23.5945161,17.5946704 26.3299355,15.2654067 26.9599355,12.1809257 L34.3817419,12.1809257 L37.7051613,18.9481066 L2.94,18.9481066 L6.26341935,12.1809257 Z M2.70967742,21.654979 L37.9354839,21.654979 L37.9354839,32.4824684 L2.70967742,32.4824684 L2.70967742,21.654979 Z M2.70967742,35.1893408 L37.9354839,35.1893408 L37.9354839,43.4601893 C36.212129,41.6993689 33.8140645,40.6030856 31.1612903,40.6030856 L29.8064516,40.6030856 L29.8064516,43.3099579 L31.1612903,43.3099579 C34.8965806,43.3099579 37.9354839,46.3457153 37.9354839,50.0771388 L37.9354839,51.4996003 C33.684,51.8528471 29.9012903,53.8464586 27.2065161,56.8443198 L2.70967742,56.8443198 L2.70967742,35.1893408 Z M2.70967742,81.2061711 L2.70967742,59.5511921 L25.2311613,59.5511921 C23.8410968,61.9427139 23.0322581,64.7118443 23.0322581,67.6718093 C23.0322581,73.318345 25.9343226,78.2949299 30.3226452,81.2061711 L2.70967742,81.2061711 Z M39.2903226,81.2061711 C31.8197419,81.2061711 25.7419355,75.1346564 25.7419355,67.6718093 C25.7419355,60.6664236 31.0989677,54.8872511 37.9354839,54.2064727 L37.9354839,59.4023142 C35.8747742,58.9651543 35.1106452,57.6428471 35.0740645,57.5765288 L32.6597419,58.8040954 C32.7288387,58.9448527 34.4440645,62.2580645 39.2903226,62.2580645 C44.1365806,62.2580645 45.8518065,58.9448527 45.9222581,58.8027419 L43.5079355,57.5751753 C43.4713548,57.6428471 42.7072258,58.9651543 40.6465161,59.4009607 L40.6465161,54.210533 C45.9087097,54.728899 50.3742581,58.2302384 52.1043871,63.286676 C51.7087742,64.6847756 51.483871,66.150547 51.483871,67.6718093 C51.483871,69.1971318 51.710129,70.6669635 52.1057419,72.06777 C50.2265806,77.5356522 45.0863226,81.2061711 39.2903226,81.2061711 Z M48.2620645,81.2061711 C50.4230323,79.7769425 52.2358065,77.8401753 53.5174839,75.5203857 C54.7896774,77.8103997 56.5970323,79.7620547 58.7742581,81.2061711 L48.2620645,81.2061711 Z M81.2903226,81.2061711 L76.7096129,81.2061711 C78.5250968,80.0016129 80.0845161,78.4438079 81.2903226,76.6302034 L81.2903226,81.2061711 Z M67.7432903,81.2048177 C60.2727097,81.2048177 54.1935484,75.1346564 54.1935484,67.6718093 C54.1935484,60.6664236 59.5505806,54.8872511 66.3870968,54.2064727 L66.3870968,59.4023142 C64.3263871,58.9651543 63.5636129,57.645554 63.5351613,57.59277 L61.1113548,58.8040954 C61.1804516,58.9448527 62.8956774,62.2580645 67.7419355,62.2580645 C72.5881935,62.2580645 74.3034194,58.9448527 74.373871,58.8027419 L71.9595484,57.5751753 C71.9229677,57.6428471 71.1588387,58.9651543 69.098129,59.4009607 L69.098129,54.2051192 C75.9346452,54.8872511 81.2916774,60.6650701 81.2916774,67.6704558 C81.2916774,75.1333029 75.213871,81.2048177 67.7432903,81.2048177 Z" id="Shape"></path>
                                <rect id="Rectangle-path" x="5.25" y="51.3967391" width="2.1" height="2.09782609"></rect>
                                <rect id="Rectangle-path" x="11.55" y="51.3967391" width="15.75" height="2.09782609"></rect>
                                <rect id="Rectangle-path" x="49.35" y="30.4184783" width="2.1" height="2.09782609"></rect>
                                <rect id="Rectangle-path" x="54.6" y="30.4184783" width="23.1" height="2.09782609"></rect>
                            </g>
                            <g id="groceries" transform="translate(284.800000, 0.000000)">
                                <path d="M74.516129,13.5343619 L70.4516129,13.5343619 L70.4516129,10.8274895 L73.1612903,10.8274895 L73.1612903,4.06030856 C73.1612903,1.82172511 71.3376774,0 69.0967742,0 L58.2580645,0 C56.0171613,0 54.1935484,1.82172511 54.1935484,4.06030856 L54.1935484,10.8274895 L56.9032258,10.8274895 L56.9032258,13.5343619 L52.8387097,13.5343619 C47.6103871,13.5343619 43.3548387,17.7841515 43.3548387,23.0084151 L43.3548387,47.3702665 L43.3548387,51.9435273 C42.4755484,51.7188569 41.5705161,51.5632118 40.6451613,51.4874194 L40.6451613,50.0771388 L40.6451613,18.7897546 L36.5806452,10.5134923 L36.5806452,0 L4.06451613,0 L4.06451613,10.5134923 L0,18.7897546 L0,83.9130435 L39.2903226,83.9130435 C41.1762581,83.9130435 43.0012258,83.5787447 44.7096774,82.9764656 L44.7096774,83.9130435 L84,83.9130435 L84,23.0084151 C84,17.7841515 79.7444516,13.5343619 74.516129,13.5343619 Z M56.9032258,4.06030856 C56.9032258,3.31456522 57.5101935,2.70687237 58.2580645,2.70687237 L69.0967742,2.70687237 C69.8446452,2.70687237 70.4516129,3.31456522 70.4516129,4.06030856 L70.4516129,8.12061711 L67.7419355,8.12061711 L67.7419355,5.41374474 L65.0322581,5.41374474 L65.0322581,8.12061711 L62.3225806,8.12061711 L62.3225806,5.41374474 L59.6129032,5.41374474 L59.6129032,8.12061711 L56.9032258,8.12061711 L56.9032258,4.06030856 Z M67.7419355,10.8274895 L67.7419355,13.5343619 L59.6129032,13.5343619 L59.6129032,10.8274895 L67.7419355,10.8274895 Z M46.0645161,23.0084151 C46.0645161,19.2769916 49.1034194,16.2412342 52.8387097,16.2412342 L74.516129,16.2412342 C78.2514194,16.2412342 81.2903226,19.2769916 81.2903226,23.0084151 L81.2903226,25.7152875 L46.0645161,25.7152875 L46.0645161,23.0084151 Z M46.0645161,28.4221599 L81.2903226,28.4221599 L81.2903226,46.0168303 L70.4868387,46.0168303 C71.7251613,44.3832328 73.668,43.3099579 75.8709677,43.3099579 L77.2258065,43.3099579 L77.2258065,40.6030856 L75.8709677,40.6030856 C72.0977419,40.6030856 68.8420645,42.8213675 67.3151613,46.0168303 L46.0645161,46.0168303 L46.0645161,28.4221599 Z M81.2903226,48.7237027 L81.2903226,58.7134151 C78.6118065,54.6842356 74.1841935,51.9218724 69.0967742,51.4996003 L69.0967742,50.0771388 C69.0967742,49.6142637 69.1441935,49.1608626 69.2336129,48.7237027 L81.2903226,48.7237027 Z M46.0645161,48.7237027 L66.4954839,48.7237027 C66.4318065,49.1676297 66.3870968,49.6169705 66.3870968,50.0771388 L66.3870968,51.4996003 C60.8458065,51.9597686 56.0876129,55.1971879 53.5201935,59.8205259 C51.8266452,56.7387518 49.2050323,54.3323422 46.0645161,52.9031136 L46.0645161,48.7237027 Z M6.77419355,2.70687237 L33.8709677,2.70687237 L33.8709677,9.4740533 L26.9599355,9.4740533 C26.3299355,6.38957223 23.5931613,4.06030856 20.3225806,4.06030856 C17.052,4.06030856 14.3152258,6.38957223 13.6852258,9.4740533 L6.77419355,9.4740533 L6.77419355,2.70687237 Z M24.3870968,10.8274895 C24.3870968,13.0660729 22.5634839,14.887798 20.3225806,14.887798 C18.0816774,14.887798 16.2580645,13.0660729 16.2580645,10.8274895 C16.2580645,8.58890603 18.0816774,6.76718093 20.3225806,6.76718093 C22.5634839,6.76718093 24.3870968,8.58890603 24.3870968,10.8274895 Z M6.26341935,12.1809257 L13.6852258,12.1809257 C14.3152258,15.2654067 17.0506452,17.5946704 20.3225806,17.5946704 C23.5945161,17.5946704 26.3299355,15.2654067 26.9599355,12.1809257 L34.3817419,12.1809257 L37.7051613,18.9481066 L2.94,18.9481066 L6.26341935,12.1809257 Z M2.70967742,21.654979 L37.9354839,21.654979 L37.9354839,32.4824684 L2.70967742,32.4824684 L2.70967742,21.654979 Z M2.70967742,35.1893408 L37.9354839,35.1893408 L37.9354839,43.4601893 C36.212129,41.6993689 33.8140645,40.6030856 31.1612903,40.6030856 L29.8064516,40.6030856 L29.8064516,43.3099579 L31.1612903,43.3099579 C34.8965806,43.3099579 37.9354839,46.3457153 37.9354839,50.0771388 L37.9354839,51.4996003 C33.684,51.8528471 29.9012903,53.8464586 27.2065161,56.8443198 L2.70967742,56.8443198 L2.70967742,35.1893408 Z M2.70967742,81.2061711 L2.70967742,59.5511921 L25.2311613,59.5511921 C23.8410968,61.9427139 23.0322581,64.7118443 23.0322581,67.6718093 C23.0322581,73.318345 25.9343226,78.2949299 30.3226452,81.2061711 L2.70967742,81.2061711 Z M39.2903226,81.2061711 C31.8197419,81.2061711 25.7419355,75.1346564 25.7419355,67.6718093 C25.7419355,60.6664236 31.0989677,54.8872511 37.9354839,54.2064727 L37.9354839,59.4023142 C35.8747742,58.9651543 35.1106452,57.6428471 35.0740645,57.5765288 L32.6597419,58.8040954 C32.7288387,58.9448527 34.4440645,62.2580645 39.2903226,62.2580645 C44.1365806,62.2580645 45.8518065,58.9448527 45.9222581,58.8027419 L43.5079355,57.5751753 C43.4713548,57.6428471 42.7072258,58.9651543 40.6465161,59.4009607 L40.6465161,54.210533 C45.9087097,54.728899 50.3742581,58.2302384 52.1043871,63.286676 C51.7087742,64.6847756 51.483871,66.150547 51.483871,67.6718093 C51.483871,69.1971318 51.710129,70.6669635 52.1057419,72.06777 C50.2265806,77.5356522 45.0863226,81.2061711 39.2903226,81.2061711 Z M48.2620645,81.2061711 C50.4230323,79.7769425 52.2358065,77.8401753 53.5174839,75.5203857 C54.7896774,77.8103997 56.5970323,79.7620547 58.7742581,81.2061711 L48.2620645,81.2061711 Z M81.2903226,81.2061711 L76.7096129,81.2061711 C78.5250968,80.0016129 80.0845161,78.4438079 81.2903226,76.6302034 L81.2903226,81.2061711 Z M67.7432903,81.2048177 C60.2727097,81.2048177 54.1935484,75.1346564 54.1935484,67.6718093 C54.1935484,60.6664236 59.5505806,54.8872511 66.3870968,54.2064727 L66.3870968,59.4023142 C64.3263871,58.9651543 63.5636129,57.645554 63.5351613,57.59277 L61.1113548,58.8040954 C61.1804516,58.9448527 62.8956774,62.2580645 67.7419355,62.2580645 C72.5881935,62.2580645 74.3034194,58.9448527 74.373871,58.8027419 L71.9595484,57.5751753 C71.9229677,57.6428471 71.1588387,58.9651543 69.098129,59.4009607 L69.098129,54.2051192 C75.9346452,54.8872511 81.2916774,60.6650701 81.2916774,67.6704558 C81.2916774,75.1333029 75.213871,81.2048177 67.7432903,81.2048177 Z" id="Shape"></path>
                                <rect id="Rectangle-path" x="5.25" y="51.3967391" width="2.1" height="2.09782609"></rect>
                                <rect id="Rectangle-path" x="11.55" y="51.3967391" width="15.75" height="2.09782609"></rect>
                                <rect id="Rectangle-path" x="49.35" y="30.4184783" width="2.1" height="2.09782609"></rect>
                                <rect id="Rectangle-path" x="54.6" y="30.4184783" width="23.1" height="2.09782609"></rect>
                            </g>
                            <g id="groceries" transform="translate(402.000000, 0.000000)">
                                <path d="M74.516129,13.5343619 L70.4516129,13.5343619 L70.4516129,10.8274895 L73.1612903,10.8274895 L73.1612903,4.06030856 C73.1612903,1.82172511 71.3376774,0 69.0967742,0 L58.2580645,0 C56.0171613,0 54.1935484,1.82172511 54.1935484,4.06030856 L54.1935484,10.8274895 L56.9032258,10.8274895 L56.9032258,13.5343619 L52.8387097,13.5343619 C47.6103871,13.5343619 43.3548387,17.7841515 43.3548387,23.0084151 L43.3548387,47.3702665 L43.3548387,51.9435273 C42.4755484,51.7188569 41.5705161,51.5632118 40.6451613,51.4874194 L40.6451613,50.0771388 L40.6451613,18.7897546 L36.5806452,10.5134923 L36.5806452,0 L4.06451613,0 L4.06451613,10.5134923 L0,18.7897546 L0,83.9130435 L39.2903226,83.9130435 C41.1762581,83.9130435 43.0012258,83.5787447 44.7096774,82.9764656 L44.7096774,83.9130435 L84,83.9130435 L84,23.0084151 C84,17.7841515 79.7444516,13.5343619 74.516129,13.5343619 Z M56.9032258,4.06030856 C56.9032258,3.31456522 57.5101935,2.70687237 58.2580645,2.70687237 L69.0967742,2.70687237 C69.8446452,2.70687237 70.4516129,3.31456522 70.4516129,4.06030856 L70.4516129,8.12061711 L67.7419355,8.12061711 L67.7419355,5.41374474 L65.0322581,5.41374474 L65.0322581,8.12061711 L62.3225806,8.12061711 L62.3225806,5.41374474 L59.6129032,5.41374474 L59.6129032,8.12061711 L56.9032258,8.12061711 L56.9032258,4.06030856 Z M67.7419355,10.8274895 L67.7419355,13.5343619 L59.6129032,13.5343619 L59.6129032,10.8274895 L67.7419355,10.8274895 Z M46.0645161,23.0084151 C46.0645161,19.2769916 49.1034194,16.2412342 52.8387097,16.2412342 L74.516129,16.2412342 C78.2514194,16.2412342 81.2903226,19.2769916 81.2903226,23.0084151 L81.2903226,25.7152875 L46.0645161,25.7152875 L46.0645161,23.0084151 Z M46.0645161,28.4221599 L81.2903226,28.4221599 L81.2903226,46.0168303 L70.4868387,46.0168303 C71.7251613,44.3832328 73.668,43.3099579 75.8709677,43.3099579 L77.2258065,43.3099579 L77.2258065,40.6030856 L75.8709677,40.6030856 C72.0977419,40.6030856 68.8420645,42.8213675 67.3151613,46.0168303 L46.0645161,46.0168303 L46.0645161,28.4221599 Z M81.2903226,48.7237027 L81.2903226,58.7134151 C78.6118065,54.6842356 74.1841935,51.9218724 69.0967742,51.4996003 L69.0967742,50.0771388 C69.0967742,49.6142637 69.1441935,49.1608626 69.2336129,48.7237027 L81.2903226,48.7237027 Z M46.0645161,48.7237027 L66.4954839,48.7237027 C66.4318065,49.1676297 66.3870968,49.6169705 66.3870968,50.0771388 L66.3870968,51.4996003 C60.8458065,51.9597686 56.0876129,55.1971879 53.5201935,59.8205259 C51.8266452,56.7387518 49.2050323,54.3323422 46.0645161,52.9031136 L46.0645161,48.7237027 Z M6.77419355,2.70687237 L33.8709677,2.70687237 L33.8709677,9.4740533 L26.9599355,9.4740533 C26.3299355,6.38957223 23.5931613,4.06030856 20.3225806,4.06030856 C17.052,4.06030856 14.3152258,6.38957223 13.6852258,9.4740533 L6.77419355,9.4740533 L6.77419355,2.70687237 Z M24.3870968,10.8274895 C24.3870968,13.0660729 22.5634839,14.887798 20.3225806,14.887798 C18.0816774,14.887798 16.2580645,13.0660729 16.2580645,10.8274895 C16.2580645,8.58890603 18.0816774,6.76718093 20.3225806,6.76718093 C22.5634839,6.76718093 24.3870968,8.58890603 24.3870968,10.8274895 Z M6.26341935,12.1809257 L13.6852258,12.1809257 C14.3152258,15.2654067 17.0506452,17.5946704 20.3225806,17.5946704 C23.5945161,17.5946704 26.3299355,15.2654067 26.9599355,12.1809257 L34.3817419,12.1809257 L37.7051613,18.9481066 L2.94,18.9481066 L6.26341935,12.1809257 Z M2.70967742,21.654979 L37.9354839,21.654979 L37.9354839,32.4824684 L2.70967742,32.4824684 L2.70967742,21.654979 Z M2.70967742,35.1893408 L37.9354839,35.1893408 L37.9354839,43.4601893 C36.212129,41.6993689 33.8140645,40.6030856 31.1612903,40.6030856 L29.8064516,40.6030856 L29.8064516,43.3099579 L31.1612903,43.3099579 C34.8965806,43.3099579 37.9354839,46.3457153 37.9354839,50.0771388 L37.9354839,51.4996003 C33.684,51.8528471 29.9012903,53.8464586 27.2065161,56.8443198 L2.70967742,56.8443198 L2.70967742,35.1893408 Z M2.70967742,81.2061711 L2.70967742,59.5511921 L25.2311613,59.5511921 C23.8410968,61.9427139 23.0322581,64.7118443 23.0322581,67.6718093 C23.0322581,73.318345 25.9343226,78.2949299 30.3226452,81.2061711 L2.70967742,81.2061711 Z M39.2903226,81.2061711 C31.8197419,81.2061711 25.7419355,75.1346564 25.7419355,67.6718093 C25.7419355,60.6664236 31.0989677,54.8872511 37.9354839,54.2064727 L37.9354839,59.4023142 C35.8747742,58.9651543 35.1106452,57.6428471 35.0740645,57.5765288 L32.6597419,58.8040954 C32.7288387,58.9448527 34.4440645,62.2580645 39.2903226,62.2580645 C44.1365806,62.2580645 45.8518065,58.9448527 45.9222581,58.8027419 L43.5079355,57.5751753 C43.4713548,57.6428471 42.7072258,58.9651543 40.6465161,59.4009607 L40.6465161,54.210533 C45.9087097,54.728899 50.3742581,58.2302384 52.1043871,63.286676 C51.7087742,64.6847756 51.483871,66.150547 51.483871,67.6718093 C51.483871,69.1971318 51.710129,70.6669635 52.1057419,72.06777 C50.2265806,77.5356522 45.0863226,81.2061711 39.2903226,81.2061711 Z M48.2620645,81.2061711 C50.4230323,79.7769425 52.2358065,77.8401753 53.5174839,75.5203857 C54.7896774,77.8103997 56.5970323,79.7620547 58.7742581,81.2061711 L48.2620645,81.2061711 Z M81.2903226,81.2061711 L76.7096129,81.2061711 C78.5250968,80.0016129 80.0845161,78.4438079 81.2903226,76.6302034 L81.2903226,81.2061711 Z M67.7432903,81.2048177 C60.2727097,81.2048177 54.1935484,75.1346564 54.1935484,67.6718093 C54.1935484,60.6664236 59.5505806,54.8872511 66.3870968,54.2064727 L66.3870968,59.4023142 C64.3263871,58.9651543 63.5636129,57.645554 63.5351613,57.59277 L61.1113548,58.8040954 C61.1804516,58.9448527 62.8956774,62.2580645 67.7419355,62.2580645 C72.5881935,62.2580645 74.3034194,58.9448527 74.373871,58.8027419 L71.9595484,57.5751753 C71.9229677,57.6428471 71.1588387,58.9651543 69.098129,59.4009607 L69.098129,54.2051192 C75.9346452,54.8872511 81.2916774,60.6650701 81.2916774,67.6704558 C81.2916774,75.1333029 75.213871,81.2048177 67.7432903,81.2048177 Z" id="Shape"></path>
                                <rect id="Rectangle-path" x="5.25" y="51.3967391" width="2.1" height="2.09782609"></rect>
                                <rect id="Rectangle-path" x="11.55" y="51.3967391" width="15.75" height="2.09782609"></rect>
                                <rect id="Rectangle-path" x="49.35" y="30.4184783" width="2.1" height="2.09782609"></rect>
                            </g>
                            <g id="groceries" transform="translate(101.200000, 109.086957)">
                                <path d="M74.516129,13.5343619 L70.4516129,13.5343619 L70.4516129,10.8274895 L73.1612903,10.8274895 L73.1612903,4.06030856 C73.1612903,1.82172511 71.3376774,0 69.0967742,0 L58.2580645,0 C56.0171613,0 54.1935484,1.82172511 54.1935484,4.06030856 L54.1935484,10.8274895 L56.9032258,10.8274895 L56.9032258,13.5343619 L52.8387097,13.5343619 C47.6103871,13.5343619 43.3548387,17.7841515 43.3548387,23.0084151 L43.3548387,47.3702665 L43.3548387,51.9435273 C42.4755484,51.7188569 41.5705161,51.5632118 40.6451613,51.4874194 L40.6451613,50.0771388 L40.6451613,18.7897546 L36.5806452,10.5134923 L36.5806452,0 L4.06451613,0 L4.06451613,10.5134923 L0,18.7897546 L0,83.9130435 L39.2903226,83.9130435 C41.1762581,83.9130435 43.0012258,83.5787447 44.7096774,82.9764656 L44.7096774,83.9130435 L84,83.9130435 L84,23.0084151 C84,17.7841515 79.7444516,13.5343619 74.516129,13.5343619 Z M56.9032258,4.06030856 C56.9032258,3.31456522 57.5101935,2.70687237 58.2580645,2.70687237 L69.0967742,2.70687237 C69.8446452,2.70687237 70.4516129,3.31456522 70.4516129,4.06030856 L70.4516129,8.12061711 L67.7419355,8.12061711 L67.7419355,5.41374474 L65.0322581,5.41374474 L65.0322581,8.12061711 L62.3225806,8.12061711 L62.3225806,5.41374474 L59.6129032,5.41374474 L59.6129032,8.12061711 L56.9032258,8.12061711 L56.9032258,4.06030856 Z M67.7419355,10.8274895 L67.7419355,13.5343619 L59.6129032,13.5343619 L59.6129032,10.8274895 L67.7419355,10.8274895 Z M46.0645161,23.0084151 C46.0645161,19.2769916 49.1034194,16.2412342 52.8387097,16.2412342 L74.516129,16.2412342 C78.2514194,16.2412342 81.2903226,19.2769916 81.2903226,23.0084151 L81.2903226,25.7152875 L46.0645161,25.7152875 L46.0645161,23.0084151 Z M46.0645161,28.4221599 L81.2903226,28.4221599 L81.2903226,46.0168303 L70.4868387,46.0168303 C71.7251613,44.3832328 73.668,43.3099579 75.8709677,43.3099579 L77.2258065,43.3099579 L77.2258065,40.6030856 L75.8709677,40.6030856 C72.0977419,40.6030856 68.8420645,42.8213675 67.3151613,46.0168303 L46.0645161,46.0168303 L46.0645161,28.4221599 Z M81.2903226,48.7237027 L81.2903226,58.7134151 C78.6118065,54.6842356 74.1841935,51.9218724 69.0967742,51.4996003 L69.0967742,50.0771388 C69.0967742,49.6142637 69.1441935,49.1608626 69.2336129,48.7237027 L81.2903226,48.7237027 Z M46.0645161,48.7237027 L66.4954839,48.7237027 C66.4318065,49.1676297 66.3870968,49.6169705 66.3870968,50.0771388 L66.3870968,51.4996003 C60.8458065,51.9597686 56.0876129,55.1971879 53.5201935,59.8205259 C51.8266452,56.7387518 49.2050323,54.3323422 46.0645161,52.9031136 L46.0645161,48.7237027 Z M6.77419355,2.70687237 L33.8709677,2.70687237 L33.8709677,9.4740533 L26.9599355,9.4740533 C26.3299355,6.38957223 23.5931613,4.06030856 20.3225806,4.06030856 C17.052,4.06030856 14.3152258,6.38957223 13.6852258,9.4740533 L6.77419355,9.4740533 L6.77419355,2.70687237 Z M24.3870968,10.8274895 C24.3870968,13.0660729 22.5634839,14.887798 20.3225806,14.887798 C18.0816774,14.887798 16.2580645,13.0660729 16.2580645,10.8274895 C16.2580645,8.58890603 18.0816774,6.76718093 20.3225806,6.76718093 C22.5634839,6.76718093 24.3870968,8.58890603 24.3870968,10.8274895 Z M6.26341935,12.1809257 L13.6852258,12.1809257 C14.3152258,15.2654067 17.0506452,17.5946704 20.3225806,17.5946704 C23.5945161,17.5946704 26.3299355,15.2654067 26.9599355,12.1809257 L34.3817419,12.1809257 L37.7051613,18.9481066 L2.94,18.9481066 L6.26341935,12.1809257 Z M2.70967742,21.654979 L37.9354839,21.654979 L37.9354839,32.4824684 L2.70967742,32.4824684 L2.70967742,21.654979 Z M2.70967742,35.1893408 L37.9354839,35.1893408 L37.9354839,43.4601893 C36.212129,41.6993689 33.8140645,40.6030856 31.1612903,40.6030856 L29.8064516,40.6030856 L29.8064516,43.3099579 L31.1612903,43.3099579 C34.8965806,43.3099579 37.9354839,46.3457153 37.9354839,50.0771388 L37.9354839,51.4996003 C33.684,51.8528471 29.9012903,53.8464586 27.2065161,56.8443198 L2.70967742,56.8443198 L2.70967742,35.1893408 Z M2.70967742,81.2061711 L2.70967742,59.5511921 L25.2311613,59.5511921 C23.8410968,61.9427139 23.0322581,64.7118443 23.0322581,67.6718093 C23.0322581,73.318345 25.9343226,78.2949299 30.3226452,81.2061711 L2.70967742,81.2061711 Z M39.2903226,81.2061711 C31.8197419,81.2061711 25.7419355,75.1346564 25.7419355,67.6718093 C25.7419355,60.6664236 31.0989677,54.8872511 37.9354839,54.2064727 L37.9354839,59.4023142 C35.8747742,58.9651543 35.1106452,57.6428471 35.0740645,57.5765288 L32.6597419,58.8040954 C32.7288387,58.9448527 34.4440645,62.2580645 39.2903226,62.2580645 C44.1365806,62.2580645 45.8518065,58.9448527 45.9222581,58.8027419 L43.5079355,57.5751753 C43.4713548,57.6428471 42.7072258,58.9651543 40.6465161,59.4009607 L40.6465161,54.210533 C45.9087097,54.728899 50.3742581,58.2302384 52.1043871,63.286676 C51.7087742,64.6847756 51.483871,66.150547 51.483871,67.6718093 C51.483871,69.1971318 51.710129,70.6669635 52.1057419,72.06777 C50.2265806,77.5356522 45.0863226,81.2061711 39.2903226,81.2061711 Z M48.2620645,81.2061711 C50.4230323,79.7769425 52.2358065,77.8401753 53.5174839,75.5203857 C54.7896774,77.8103997 56.5970323,79.7620547 58.7742581,81.2061711 L48.2620645,81.2061711 Z M81.2903226,81.2061711 L76.7096129,81.2061711 C78.5250968,80.0016129 80.0845161,78.4438079 81.2903226,76.6302034 L81.2903226,81.2061711 Z M67.7432903,81.2048177 C60.2727097,81.2048177 54.1935484,75.1346564 54.1935484,67.6718093 C54.1935484,60.6664236 59.5505806,54.8872511 66.3870968,54.2064727 L66.3870968,59.4023142 C64.3263871,58.9651543 63.5636129,57.645554 63.5351613,57.59277 L61.1113548,58.8040954 C61.1804516,58.9448527 62.8956774,62.2580645 67.7419355,62.2580645 C72.5881935,62.2580645 74.3034194,58.9448527 74.373871,58.8027419 L71.9595484,57.5751753 C71.9229677,57.6428471 71.1588387,58.9651543 69.098129,59.4009607 L69.098129,54.2051192 C75.9346452,54.8872511 81.2916774,60.6650701 81.2916774,67.6704558 C81.2916774,75.1333029 75.213871,81.2048177 67.7432903,81.2048177 Z" id="Shape"></path>
                                <rect id="Rectangle-path" x="5.25" y="51.3967391" width="2.1" height="2.09782609"></rect>
                                <rect id="Rectangle-path" x="11.55" y="51.3967391" width="15.75" height="2.09782609"></rect>
                                <rect id="Rectangle-path" x="49.35" y="30.4184783" width="2.1" height="2.09782609"></rect>
                                <rect id="Rectangle-path" x="54.6" y="30.4184783" width="23.1" height="2.09782609"></rect>
                            </g>
                            <g id="groceries" transform="translate(218.400000, 109.086957)">
                                <path d="M74.516129,13.5343619 L70.4516129,13.5343619 L70.4516129,10.8274895 L73.1612903,10.8274895 L73.1612903,4.06030856 C73.1612903,1.82172511 71.3376774,0 69.0967742,0 L58.2580645,0 C56.0171613,0 54.1935484,1.82172511 54.1935484,4.06030856 L54.1935484,10.8274895 L56.9032258,10.8274895 L56.9032258,13.5343619 L52.8387097,13.5343619 C47.6103871,13.5343619 43.3548387,17.7841515 43.3548387,23.0084151 L43.3548387,47.3702665 L43.3548387,51.9435273 C42.4755484,51.7188569 41.5705161,51.5632118 40.6451613,51.4874194 L40.6451613,50.0771388 L40.6451613,18.7897546 L36.5806452,10.5134923 L36.5806452,0 L4.06451613,0 L4.06451613,10.5134923 L0,18.7897546 L0,83.9130435 L39.2903226,83.9130435 C41.1762581,83.9130435 43.0012258,83.5787447 44.7096774,82.9764656 L44.7096774,83.9130435 L84,83.9130435 L84,23.0084151 C84,17.7841515 79.7444516,13.5343619 74.516129,13.5343619 Z M56.9032258,4.06030856 C56.9032258,3.31456522 57.5101935,2.70687237 58.2580645,2.70687237 L69.0967742,2.70687237 C69.8446452,2.70687237 70.4516129,3.31456522 70.4516129,4.06030856 L70.4516129,8.12061711 L67.7419355,8.12061711 L67.7419355,5.41374474 L65.0322581,5.41374474 L65.0322581,8.12061711 L62.3225806,8.12061711 L62.3225806,5.41374474 L59.6129032,5.41374474 L59.6129032,8.12061711 L56.9032258,8.12061711 L56.9032258,4.06030856 Z M67.7419355,10.8274895 L67.7419355,13.5343619 L59.6129032,13.5343619 L59.6129032,10.8274895 L67.7419355,10.8274895 Z M46.0645161,23.0084151 C46.0645161,19.2769916 49.1034194,16.2412342 52.8387097,16.2412342 L74.516129,16.2412342 C78.2514194,16.2412342 81.2903226,19.2769916 81.2903226,23.0084151 L81.2903226,25.7152875 L46.0645161,25.7152875 L46.0645161,23.0084151 Z M46.0645161,28.4221599 L81.2903226,28.4221599 L81.2903226,46.0168303 L70.4868387,46.0168303 C71.7251613,44.3832328 73.668,43.3099579 75.8709677,43.3099579 L77.2258065,43.3099579 L77.2258065,40.6030856 L75.8709677,40.6030856 C72.0977419,40.6030856 68.8420645,42.8213675 67.3151613,46.0168303 L46.0645161,46.0168303 L46.0645161,28.4221599 Z M81.2903226,48.7237027 L81.2903226,58.7134151 C78.6118065,54.6842356 74.1841935,51.9218724 69.0967742,51.4996003 L69.0967742,50.0771388 C69.0967742,49.6142637 69.1441935,49.1608626 69.2336129,48.7237027 L81.2903226,48.7237027 Z M46.0645161,48.7237027 L66.4954839,48.7237027 C66.4318065,49.1676297 66.3870968,49.6169705 66.3870968,50.0771388 L66.3870968,51.4996003 C60.8458065,51.9597686 56.0876129,55.1971879 53.5201935,59.8205259 C51.8266452,56.7387518 49.2050323,54.3323422 46.0645161,52.9031136 L46.0645161,48.7237027 Z M6.77419355,2.70687237 L33.8709677,2.70687237 L33.8709677,9.4740533 L26.9599355,9.4740533 C26.3299355,6.38957223 23.5931613,4.06030856 20.3225806,4.06030856 C17.052,4.06030856 14.3152258,6.38957223 13.6852258,9.4740533 L6.77419355,9.4740533 L6.77419355,2.70687237 Z M24.3870968,10.8274895 C24.3870968,13.0660729 22.5634839,14.887798 20.3225806,14.887798 C18.0816774,14.887798 16.2580645,13.0660729 16.2580645,10.8274895 C16.2580645,8.58890603 18.0816774,6.76718093 20.3225806,6.76718093 C22.5634839,6.76718093 24.3870968,8.58890603 24.3870968,10.8274895 Z M6.26341935,12.1809257 L13.6852258,12.1809257 C14.3152258,15.2654067 17.0506452,17.5946704 20.3225806,17.5946704 C23.5945161,17.5946704 26.3299355,15.2654067 26.9599355,12.1809257 L34.3817419,12.1809257 L37.7051613,18.9481066 L2.94,18.9481066 L6.26341935,12.1809257 Z M2.70967742,21.654979 L37.9354839,21.654979 L37.9354839,32.4824684 L2.70967742,32.4824684 L2.70967742,21.654979 Z M2.70967742,35.1893408 L37.9354839,35.1893408 L37.9354839,43.4601893 C36.212129,41.6993689 33.8140645,40.6030856 31.1612903,40.6030856 L29.8064516,40.6030856 L29.8064516,43.3099579 L31.1612903,43.3099579 C34.8965806,43.3099579 37.9354839,46.3457153 37.9354839,50.0771388 L37.9354839,51.4996003 C33.684,51.8528471 29.9012903,53.8464586 27.2065161,56.8443198 L2.70967742,56.8443198 L2.70967742,35.1893408 Z M2.70967742,81.2061711 L2.70967742,59.5511921 L25.2311613,59.5511921 C23.8410968,61.9427139 23.0322581,64.7118443 23.0322581,67.6718093 C23.0322581,73.318345 25.9343226,78.2949299 30.3226452,81.2061711 L2.70967742,81.2061711 Z M39.2903226,81.2061711 C31.8197419,81.2061711 25.7419355,75.1346564 25.7419355,67.6718093 C25.7419355,60.6664236 31.0989677,54.8872511 37.9354839,54.2064727 L37.9354839,59.4023142 C35.8747742,58.9651543 35.1106452,57.6428471 35.0740645,57.5765288 L32.6597419,58.8040954 C32.7288387,58.9448527 34.4440645,62.2580645 39.2903226,62.2580645 C44.1365806,62.2580645 45.8518065,58.9448527 45.9222581,58.8027419 L43.5079355,57.5751753 C43.4713548,57.6428471 42.7072258,58.9651543 40.6465161,59.4009607 L40.6465161,54.210533 C45.9087097,54.728899 50.3742581,58.2302384 52.1043871,63.286676 C51.7087742,64.6847756 51.483871,66.150547 51.483871,67.6718093 C51.483871,69.1971318 51.710129,70.6669635 52.1057419,72.06777 C50.2265806,77.5356522 45.0863226,81.2061711 39.2903226,81.2061711 Z M48.2620645,81.2061711 C50.4230323,79.7769425 52.2358065,77.8401753 53.5174839,75.5203857 C54.7896774,77.8103997 56.5970323,79.7620547 58.7742581,81.2061711 L48.2620645,81.2061711 Z M81.2903226,81.2061711 L76.7096129,81.2061711 C78.5250968,80.0016129 80.0845161,78.4438079 81.2903226,76.6302034 L81.2903226,81.2061711 Z M67.7432903,81.2048177 C60.2727097,81.2048177 54.1935484,75.1346564 54.1935484,67.6718093 C54.1935484,60.6664236 59.5505806,54.8872511 66.3870968,54.2064727 L66.3870968,59.4023142 C64.3263871,58.9651543 63.5636129,57.645554 63.5351613,57.59277 L61.1113548,58.8040954 C61.1804516,58.9448527 62.8956774,62.2580645 67.7419355,62.2580645 C72.5881935,62.2580645 74.3034194,58.9448527 74.373871,58.8027419 L71.9595484,57.5751753 C71.9229677,57.6428471 71.1588387,58.9651543 69.098129,59.4009607 L69.098129,54.2051192 C75.9346452,54.8872511 81.2916774,60.6650701 81.2916774,67.6704558 C81.2916774,75.1333029 75.213871,81.2048177 67.7432903,81.2048177 Z" id="Shape"></path>
                                <rect id="Rectangle-path" x="5.25" y="51.3967391" width="2.1" height="2.09782609"></rect>
                                <rect id="Rectangle-path" x="11.55" y="51.3967391" width="15.75" height="2.09782609"></rect>
                                <rect id="Rectangle-path" x="49.35" y="30.4184783" width="2.1" height="2.09782609"></rect>
                                <rect id="Rectangle-path" x="54.6" y="30.4184783" width="23.1" height="2.09782609"></rect>
                            </g>
                            <g id="groceries" transform="translate(335.600000, 109.086957)">
                                <path d="M74.516129,13.5343619 L70.4516129,13.5343619 L70.4516129,10.8274895 L73.1612903,10.8274895 L73.1612903,4.06030856 C73.1612903,1.82172511 71.3376774,0 69.0967742,0 L58.2580645,0 C56.0171613,0 54.1935484,1.82172511 54.1935484,4.06030856 L54.1935484,10.8274895 L56.9032258,10.8274895 L56.9032258,13.5343619 L52.8387097,13.5343619 C47.6103871,13.5343619 43.3548387,17.7841515 43.3548387,23.0084151 L43.3548387,47.3702665 L43.3548387,51.9435273 C42.4755484,51.7188569 41.5705161,51.5632118 40.6451613,51.4874194 L40.6451613,50.0771388 L40.6451613,18.7897546 L36.5806452,10.5134923 L36.5806452,0 L4.06451613,0 L4.06451613,10.5134923 L0,18.7897546 L0,83.9130435 L39.2903226,83.9130435 C41.1762581,83.9130435 43.0012258,83.5787447 44.7096774,82.9764656 L44.7096774,83.9130435 L84,83.9130435 L84,23.0084151 C84,17.7841515 79.7444516,13.5343619 74.516129,13.5343619 Z M56.9032258,4.06030856 C56.9032258,3.31456522 57.5101935,2.70687237 58.2580645,2.70687237 L69.0967742,2.70687237 C69.8446452,2.70687237 70.4516129,3.31456522 70.4516129,4.06030856 L70.4516129,8.12061711 L67.7419355,8.12061711 L67.7419355,5.41374474 L65.0322581,5.41374474 L65.0322581,8.12061711 L62.3225806,8.12061711 L62.3225806,5.41374474 L59.6129032,5.41374474 L59.6129032,8.12061711 L56.9032258,8.12061711 L56.9032258,4.06030856 Z M67.7419355,10.8274895 L67.7419355,13.5343619 L59.6129032,13.5343619 L59.6129032,10.8274895 L67.7419355,10.8274895 Z M46.0645161,23.0084151 C46.0645161,19.2769916 49.1034194,16.2412342 52.8387097,16.2412342 L74.516129,16.2412342 C78.2514194,16.2412342 81.2903226,19.2769916 81.2903226,23.0084151 L81.2903226,25.7152875 L46.0645161,25.7152875 L46.0645161,23.0084151 Z M46.0645161,28.4221599 L81.2903226,28.4221599 L81.2903226,46.0168303 L70.4868387,46.0168303 C71.7251613,44.3832328 73.668,43.3099579 75.8709677,43.3099579 L77.2258065,43.3099579 L77.2258065,40.6030856 L75.8709677,40.6030856 C72.0977419,40.6030856 68.8420645,42.8213675 67.3151613,46.0168303 L46.0645161,46.0168303 L46.0645161,28.4221599 Z M81.2903226,48.7237027 L81.2903226,58.7134151 C78.6118065,54.6842356 74.1841935,51.9218724 69.0967742,51.4996003 L69.0967742,50.0771388 C69.0967742,49.6142637 69.1441935,49.1608626 69.2336129,48.7237027 L81.2903226,48.7237027 Z M46.0645161,48.7237027 L66.4954839,48.7237027 C66.4318065,49.1676297 66.3870968,49.6169705 66.3870968,50.0771388 L66.3870968,51.4996003 C60.8458065,51.9597686 56.0876129,55.1971879 53.5201935,59.8205259 C51.8266452,56.7387518 49.2050323,54.3323422 46.0645161,52.9031136 L46.0645161,48.7237027 Z M6.77419355,2.70687237 L33.8709677,2.70687237 L33.8709677,9.4740533 L26.9599355,9.4740533 C26.3299355,6.38957223 23.5931613,4.06030856 20.3225806,4.06030856 C17.052,4.06030856 14.3152258,6.38957223 13.6852258,9.4740533 L6.77419355,9.4740533 L6.77419355,2.70687237 Z M24.3870968,10.8274895 C24.3870968,13.0660729 22.5634839,14.887798 20.3225806,14.887798 C18.0816774,14.887798 16.2580645,13.0660729 16.2580645,10.8274895 C16.2580645,8.58890603 18.0816774,6.76718093 20.3225806,6.76718093 C22.5634839,6.76718093 24.3870968,8.58890603 24.3870968,10.8274895 Z M6.26341935,12.1809257 L13.6852258,12.1809257 C14.3152258,15.2654067 17.0506452,17.5946704 20.3225806,17.5946704 C23.5945161,17.5946704 26.3299355,15.2654067 26.9599355,12.1809257 L34.3817419,12.1809257 L37.7051613,18.9481066 L2.94,18.9481066 L6.26341935,12.1809257 Z M2.70967742,21.654979 L37.9354839,21.654979 L37.9354839,32.4824684 L2.70967742,32.4824684 L2.70967742,21.654979 Z M2.70967742,35.1893408 L37.9354839,35.1893408 L37.9354839,43.4601893 C36.212129,41.6993689 33.8140645,40.6030856 31.1612903,40.6030856 L29.8064516,40.6030856 L29.8064516,43.3099579 L31.1612903,43.3099579 C34.8965806,43.3099579 37.9354839,46.3457153 37.9354839,50.0771388 L37.9354839,51.4996003 C33.684,51.8528471 29.9012903,53.8464586 27.2065161,56.8443198 L2.70967742,56.8443198 L2.70967742,35.1893408 Z M2.70967742,81.2061711 L2.70967742,59.5511921 L25.2311613,59.5511921 C23.8410968,61.9427139 23.0322581,64.7118443 23.0322581,67.6718093 C23.0322581,73.318345 25.9343226,78.2949299 30.3226452,81.2061711 L2.70967742,81.2061711 Z M39.2903226,81.2061711 C31.8197419,81.2061711 25.7419355,75.1346564 25.7419355,67.6718093 C25.7419355,60.6664236 31.0989677,54.8872511 37.9354839,54.2064727 L37.9354839,59.4023142 C35.8747742,58.9651543 35.1106452,57.6428471 35.0740645,57.5765288 L32.6597419,58.8040954 C32.7288387,58.9448527 34.4440645,62.2580645 39.2903226,62.2580645 C44.1365806,62.2580645 45.8518065,58.9448527 45.9222581,58.8027419 L43.5079355,57.5751753 C43.4713548,57.6428471 42.7072258,58.9651543 40.6465161,59.4009607 L40.6465161,54.210533 C45.9087097,54.728899 50.3742581,58.2302384 52.1043871,63.286676 C51.7087742,64.6847756 51.483871,66.150547 51.483871,67.6718093 C51.483871,69.1971318 51.710129,70.6669635 52.1057419,72.06777 C50.2265806,77.5356522 45.0863226,81.2061711 39.2903226,81.2061711 Z M48.2620645,81.2061711 C50.4230323,79.7769425 52.2358065,77.8401753 53.5174839,75.5203857 C54.7896774,77.8103997 56.5970323,79.7620547 58.7742581,81.2061711 L48.2620645,81.2061711 Z M81.2903226,81.2061711 L76.7096129,81.2061711 C78.5250968,80.0016129 80.0845161,78.4438079 81.2903226,76.6302034 L81.2903226,81.2061711 Z M67.7432903,81.2048177 C60.2727097,81.2048177 54.1935484,75.1346564 54.1935484,67.6718093 C54.1935484,60.6664236 59.5505806,54.8872511 66.3870968,54.2064727 L66.3870968,59.4023142 C64.3263871,58.9651543 63.5636129,57.645554 63.5351613,57.59277 L61.1113548,58.8040954 C61.1804516,58.9448527 62.8956774,62.2580645 67.7419355,62.2580645 C72.5881935,62.2580645 74.3034194,58.9448527 74.373871,58.8027419 L71.9595484,57.5751753 C71.9229677,57.6428471 71.1588387,58.9651543 69.098129,59.4009607 L69.098129,54.2051192 C75.9346452,54.8872511 81.2916774,60.6650701 81.2916774,67.6704558 C81.2916774,75.1333029 75.213871,81.2048177 67.7432903,81.2048177 Z" id="Shape"></path>
                                <rect id="Rectangle-path" x="5.25" y="51.3967391" width="2.1" height="2.09782609"></rect>
                                <rect id="Rectangle-path" x="11.55" y="51.3967391" width="15.75" height="2.09782609"></rect>
                                <rect id="Rectangle-path" x="49.35" y="30.4184783" width="2.1" height="2.09782609"></rect>
                                <rect id="Rectangle-path" x="54.6" y="30.4184783" width="23.1" height="2.09782609"></rect>
                            </g>
                            <g id="groceries" transform="translate(444.800000, 109.086957)">
                                <path d="M74.516129,13.5343619 L70.4516129,13.5343619 L70.4516129,10.8274895 L73.1612903,10.8274895 L73.1612903,4.06030856 C73.1612903,1.82172511 71.3376774,0 69.0967742,0 L58.2580645,0 C56.0171613,0 54.1935484,1.82172511 54.1935484,4.06030856 L54.1935484,10.8274895 L56.9032258,10.8274895 L56.9032258,13.5343619 L52.8387097,13.5343619 C47.6103871,13.5343619 43.3548387,17.7841515 43.3548387,23.0084151 L43.3548387,47.3702665 L43.3548387,51.9435273 C42.4755484,51.7188569 41.5705161,51.5632118 40.6451613,51.4874194 L40.6451613,50.0771388 L40.6451613,18.7897546 L36.5806452,10.5134923 L36.5806452,0 L4.06451613,0 L4.06451613,10.5134923 L0,18.7897546 L0,83.9130435 L39.2903226,83.9130435 C41.1762581,83.9130435 43.0012258,83.5787447 44.7096774,82.9764656 L44.7096774,83.9130435 L84,83.9130435 L84,23.0084151 C84,17.7841515 79.7444516,13.5343619 74.516129,13.5343619 Z M56.9032258,4.06030856 C56.9032258,3.31456522 57.5101935,2.70687237 58.2580645,2.70687237 L69.0967742,2.70687237 C69.8446452,2.70687237 70.4516129,3.31456522 70.4516129,4.06030856 L70.4516129,8.12061711 L67.7419355,8.12061711 L67.7419355,5.41374474 L65.0322581,5.41374474 L65.0322581,8.12061711 L62.3225806,8.12061711 L62.3225806,5.41374474 L59.6129032,5.41374474 L59.6129032,8.12061711 L56.9032258,8.12061711 L56.9032258,4.06030856 Z M67.7419355,10.8274895 L67.7419355,13.5343619 L59.6129032,13.5343619 L59.6129032,10.8274895 L67.7419355,10.8274895 Z M46.0645161,23.0084151 C46.0645161,19.2769916 49.1034194,16.2412342 52.8387097,16.2412342 L74.516129,16.2412342 C78.2514194,16.2412342 81.2903226,19.2769916 81.2903226,23.0084151 L81.2903226,25.7152875 L46.0645161,25.7152875 L46.0645161,23.0084151 Z M46.0645161,28.4221599 L81.2903226,28.4221599 L81.2903226,46.0168303 L70.4868387,46.0168303 C71.7251613,44.3832328 73.668,43.3099579 75.8709677,43.3099579 L77.2258065,43.3099579 L77.2258065,40.6030856 L75.8709677,40.6030856 C72.0977419,40.6030856 68.8420645,42.8213675 67.3151613,46.0168303 L46.0645161,46.0168303 L46.0645161,28.4221599 Z M81.2903226,48.7237027 L81.2903226,58.7134151 C78.6118065,54.6842356 74.1841935,51.9218724 69.0967742,51.4996003 L69.0967742,50.0771388 C69.0967742,49.6142637 69.1441935,49.1608626 69.2336129,48.7237027 L81.2903226,48.7237027 Z M46.0645161,48.7237027 L66.4954839,48.7237027 C66.4318065,49.1676297 66.3870968,49.6169705 66.3870968,50.0771388 L66.3870968,51.4996003 C60.8458065,51.9597686 56.0876129,55.1971879 53.5201935,59.8205259 C51.8266452,56.7387518 49.2050323,54.3323422 46.0645161,52.9031136 L46.0645161,48.7237027 Z M6.77419355,2.70687237 L33.8709677,2.70687237 L33.8709677,9.4740533 L26.9599355,9.4740533 C26.3299355,6.38957223 23.5931613,4.06030856 20.3225806,4.06030856 C17.052,4.06030856 14.3152258,6.38957223 13.6852258,9.4740533 L6.77419355,9.4740533 L6.77419355,2.70687237 Z M24.3870968,10.8274895 C24.3870968,13.0660729 22.5634839,14.887798 20.3225806,14.887798 C18.0816774,14.887798 16.2580645,13.0660729 16.2580645,10.8274895 C16.2580645,8.58890603 18.0816774,6.76718093 20.3225806,6.76718093 C22.5634839,6.76718093 24.3870968,8.58890603 24.3870968,10.8274895 Z M6.26341935,12.1809257 L13.6852258,12.1809257 C14.3152258,15.2654067 17.0506452,17.5946704 20.3225806,17.5946704 C23.5945161,17.5946704 26.3299355,15.2654067 26.9599355,12.1809257 L34.3817419,12.1809257 L37.7051613,18.9481066 L2.94,18.9481066 L6.26341935,12.1809257 Z M2.70967742,21.654979 L37.9354839,21.654979 L37.9354839,32.4824684 L2.70967742,32.4824684 L2.70967742,21.654979 Z M2.70967742,35.1893408 L37.9354839,35.1893408 L37.9354839,43.4601893 C36.212129,41.6993689 33.8140645,40.6030856 31.1612903,40.6030856 L29.8064516,40.6030856 L29.8064516,43.3099579 L31.1612903,43.3099579 C34.8965806,43.3099579 37.9354839,46.3457153 37.9354839,50.0771388 L37.9354839,51.4996003 C33.684,51.8528471 29.9012903,53.8464586 27.2065161,56.8443198 L2.70967742,56.8443198 L2.70967742,35.1893408 Z M2.70967742,81.2061711 L2.70967742,59.5511921 L25.2311613,59.5511921 C23.8410968,61.9427139 23.0322581,64.7118443 23.0322581,67.6718093 C23.0322581,73.318345 25.9343226,78.2949299 30.3226452,81.2061711 L2.70967742,81.2061711 Z M39.2903226,81.2061711 C31.8197419,81.2061711 25.7419355,75.1346564 25.7419355,67.6718093 C25.7419355,60.6664236 31.0989677,54.8872511 37.9354839,54.2064727 L37.9354839,59.4023142 C35.8747742,58.9651543 35.1106452,57.6428471 35.0740645,57.5765288 L32.6597419,58.8040954 C32.7288387,58.9448527 34.4440645,62.2580645 39.2903226,62.2580645 C44.1365806,62.2580645 45.8518065,58.9448527 45.9222581,58.8027419 L43.5079355,57.5751753 C43.4713548,57.6428471 42.7072258,58.9651543 40.6465161,59.4009607 L40.6465161,54.210533 C45.9087097,54.728899 50.3742581,58.2302384 52.1043871,63.286676 C51.7087742,64.6847756 51.483871,66.150547 51.483871,67.6718093 C51.483871,69.1971318 51.710129,70.6669635 52.1057419,72.06777 C50.2265806,77.5356522 45.0863226,81.2061711 39.2903226,81.2061711 Z M48.2620645,81.2061711 C50.4230323,79.7769425 52.2358065,77.8401753 53.5174839,75.5203857 C54.7896774,77.8103997 56.5970323,79.7620547 58.7742581,81.2061711 L48.2620645,81.2061711 Z M81.2903226,81.2061711 L76.7096129,81.2061711 C78.5250968,80.0016129 80.0845161,78.4438079 81.2903226,76.6302034 L81.2903226,81.2061711 Z M67.7432903,81.2048177 C60.2727097,81.2048177 54.1935484,75.1346564 54.1935484,67.6718093 C54.1935484,60.6664236 59.5505806,54.8872511 66.3870968,54.2064727 L66.3870968,59.4023142 C64.3263871,58.9651543 63.5636129,57.645554 63.5351613,57.59277 L61.1113548,58.8040954 C61.1804516,58.9448527 62.8956774,62.2580645 67.7419355,62.2580645 C72.5881935,62.2580645 74.3034194,58.9448527 74.373871,58.8027419 L71.9595484,57.5751753 C71.9229677,57.6428471 71.1588387,58.9651543 69.098129,59.4009607 L69.098129,54.2051192 C75.9346452,54.8872511 81.2916774,60.6650701 81.2916774,67.6704558 C81.2916774,75.1333029 75.213871,81.2048177 67.7432903,81.2048177 Z" id="Shape"></path>
                                <rect id="Rectangle-path" x="5.25" y="51.3967391" width="2.1" height="2.09782609"></rect>
                            </g>
                        </g>
                    </g>
                </g>
            </g>
        </g>
    </g>
</svg>