<?xml version="1.0" encoding="UTF-8"?>
<svg width="32px" height="32px" viewBox="0 0 32 32" version="1.1" xmlns="http://www.w3.org/2000/svg" xmlns:xlink="http://www.w3.org/1999/xlink">
    <!-- Generator: Sketch 48.2 (47327) - http://www.bohemiancoding.com/sketch -->
    <title>youtube-logotype</title>
    <desc>Created with Sketch.</desc>
    <defs></defs>
    <g id="Parcerias" stroke="none" stroke-width="1" fill="none" fill-rule="evenodd" transform="translate(-244.000000, -1896.000000)">
        <g id="footer" transform="translate(0.000000, 1757.000000)" fill="#17A2FF" fill-rule="nonzero">
            <g id="Group-7">
                <g transform="translate(100.000000, 67.000000)">
                    <g id="Group-5" transform="translate(0.000000, 72.000000)">
                        <g id="youtube-logotype" transform="translate(144.000000, 0.000000)">
                            <polygon id="Shape" points="8.384 17.1369796 9.64930612 17.1369796 9.64930612 23.9853061 10.8463673 23.9853061 10.8463673 17.1369796 12.1351837 17.1369796 12.1351837 16.0153469 8.384 16.0153469"></polygon>
                            <path d="M18.5057959,17.9742041 C18.1100408,17.9742041 17.7407347,18.1903673 17.3936327,18.6181224 L17.3936327,16.0150204 L16.3177143,16.0150204 L16.3177143,23.9853061 L17.3936327,23.9853061 L17.3936327,23.4099592 C17.7537959,23.8543673 18.1227755,24.0672653 18.5057959,24.0672653 C18.9338776,24.0672653 19.2218776,23.8419592 19.365551,23.3998367 C19.4377143,23.1480816 19.4746122,22.7526531 19.4746122,22.203102 L19.4746122,19.8383673 C19.4746122,19.2760816 19.4377143,18.8835918 19.365551,18.644898 C19.2222041,18.1995102 18.933551,17.9742041 18.5057959,17.9742041 Z M18.3980408,22.2873469 C18.3980408,22.8241633 18.2406531,23.0886531 17.9297959,23.0886531 C17.7531429,23.0886531 17.5732245,23.0040816 17.3933061,22.8238367 L17.3933061,19.2045714 C17.5732245,19.0266122 17.7531429,18.9423673 17.9297959,18.9423673 C18.2403265,18.9423673 18.3980408,19.2173061 18.3980408,19.7528163 L18.3980408,22.2873469 Z" id="Shape"></path>
                            <path d="M14.3098776,22.5851429 C14.0711837,22.922449 13.845551,23.0886531 13.6293878,23.0886531 C13.4857143,23.0886531 13.4037551,23.0040816 13.3776327,22.836898 C13.3678367,22.8022857 13.3678367,22.6710204 13.3678367,22.4189388 L13.3678367,18.0466939 L12.2915918,18.0466939 L12.2915918,22.7418776 C12.2915918,23.1614694 12.3278367,23.444898 12.3866122,23.6251429 C12.4946939,23.9262041 12.7337143,24.0672653 13.0798367,24.0672653 C13.4759184,24.0672653 13.8821224,23.8282449 14.3098776,23.3377959 L14.3098776,23.9856327 L15.3867755,23.9856327 L15.3867755,18.0466939 L14.3098776,18.0466939 L14.3098776,22.5851429 Z" id="Shape"></path>
                            <path d="M15.2336327,12.5603265 C15.584,12.5603265 15.7521633,12.282449 15.7521633,11.7273469 L15.7521633,9.20293878 C15.7521633,8.6475102 15.584,8.37093878 15.2336327,8.37093878 C14.8829388,8.37093878 14.714449,8.64783673 14.714449,9.20293878 L14.714449,11.7273469 C14.714449,12.2827755 14.8829388,12.5603265 15.2336327,12.5603265 Z" id="Shape"></path>
                            <path d="M15.9591837,0 C7.14514286,0 0,7.14514286 0,15.9591837 C0,24.7732245 7.14514286,31.9183673 15.9591837,31.9183673 C24.7732245,31.9183673 31.9183673,24.7732245 31.9183673,15.9591837 C31.9183673,7.14514286 24.7732245,0 15.9591837,0 Z M17.7342041,7.4644898 L18.8186122,7.4644898 L18.8186122,11.883102 C18.8186122,12.1381224 18.8186122,12.2703673 18.8316735,12.3059592 C18.8555102,12.474449 18.9410612,12.5606531 19.0866939,12.5606531 C19.3041633,12.5606531 19.5324082,12.3921633 19.7737143,12.0515918 L19.7737143,7.4644898 L20.8610612,7.4644898 L20.8610612,13.4657959 L19.7737143,13.4657959 L19.7737143,12.8114286 C19.3407347,13.3077551 18.928,13.5484082 18.5312653,13.5484082 C18.1812245,13.5484082 17.9395918,13.4063673 17.8305306,13.1026939 C17.770449,12.9208163 17.7342041,12.6337959 17.7342041,12.2102857 L17.7342041,7.4644898 Z M13.627102,9.42138776 C13.627102,8.7797551 13.7361633,8.31085714 13.9673469,8.0075102 C14.2680816,7.59706122 14.6915918,7.392 15.2336327,7.392 C15.7782857,7.392 16.2014694,7.59706122 16.5022041,8.0075102 C16.7301224,8.31053061 16.8391837,8.7797551 16.8391837,9.42138776 L16.8391837,11.5229388 C16.8391837,12.1609796 16.7301224,12.6341224 16.5022041,12.9342041 C16.2014694,13.3436735 15.7782857,13.5484082 15.2336327,13.5484082 C14.6915918,13.5484082 14.2680816,13.3436735 13.9673469,12.9342041 C13.7361633,12.6341224 13.627102,12.1606531 13.627102,11.5229388 L13.627102,9.42138776 Z M10.7190204,5.41257143 L11.5751837,8.57502041 L12.3977143,5.41257143 L13.6173061,5.41257143 L12.1665306,10.2044082 L12.1665306,13.4661224 L10.9609796,13.4661224 L10.9609796,10.2044082 C10.8515918,9.62644898 10.6102857,8.7797551 10.2233469,7.6564898 C9.96930612,6.90906122 9.7044898,6.15934694 9.45044898,5.41257143 L10.7190204,5.41257143 Z M24.5505306,24.5097143 C24.3324082,25.4563265 23.5582041,26.155102 22.6259592,26.2592653 C20.4176327,26.5057959 18.1838367,26.507102 15.9582041,26.5057959 C13.733551,26.507102 11.498449,26.5057959 9.29077551,26.2592653 C8.35853061,26.155102 7.584,25.4566531 7.36653061,24.5097143 C7.056,23.1614694 7.056,21.6891429 7.056,20.3007347 C7.056,18.9123265 7.05991837,17.4403265 7.37012245,16.0917551 C7.58791837,15.1448163 8.36179592,14.4460408 9.29404082,14.3422041 C11.5020408,14.0956735 13.7368163,14.0943673 15.9621224,14.0956735 C18.1867755,14.0943673 20.421551,14.0956735 22.629551,14.3422041 C23.5617959,14.4463673 24.3363265,15.1448163 24.5547755,16.0917551 C24.8643265,17.4403265 24.8623673,18.9123265 24.8623673,20.3007347 C24.8623673,21.6891429 24.8610612,23.1614694 24.5505306,24.5097143 Z" id="Shape"></path>
                            <path d="M21.9330612,17.9742041 C21.3825306,17.9742041 20.955102,18.1763265 20.6442449,18.5828571 C20.416,18.8832653 20.3118367,19.3475918 20.3118367,19.9820408 L20.3118367,22.0623673 C20.3118367,22.693551 20.4284082,23.1611429 20.6576327,23.4586122 C20.9681633,23.8641633 21.396898,24.0669388 21.9598367,24.0669388 C22.5217959,24.0669388 22.9629388,23.8543673 23.2607347,23.4230204 C23.3913469,23.2323265 23.4762449,23.0164898 23.5121633,22.7781224 C23.5222857,22.6703673 23.5350204,22.4316735 23.5350204,22.0845714 L23.5350204,21.9281633 L22.437551,21.9281633 C22.437551,22.3591837 22.4235102,22.5985306 22.4140408,22.6569796 C22.3526531,22.9446531 22.1978776,23.0883265 21.9330612,23.0883265 C21.5634286,23.0883265 21.3825306,22.8140408 21.3825306,22.2648163 L21.3825306,21.2114286 L23.5350204,21.2114286 L23.5350204,19.9813878 C23.5350204,19.3469388 23.4275918,18.8826122 23.2019592,18.5822041 C22.9012245,18.1766531 22.4731429,17.9742041 21.9330612,17.9742041 Z M22.4594286,20.3160816 L21.3831837,20.3160816 L21.3831837,19.7665306 C21.3831837,19.2173061 21.5637551,18.9426939 21.9232653,18.9426939 C22.2791837,18.9426939 22.4594286,19.2176327 22.4594286,19.7665306 L22.4594286,20.3160816 Z" id="Shape"></path>
                        </g>
                    </g>
                </g>
            </g>
        </g>
    </g>
</svg>